# MagicaVoxel @ Ephtracy

# group
o 

# material
mtllib Counter_Straight_new.mtl
usemtl palette

# normals
vn -1 0 0
vn 1 0 0
vn 0 0 1
vn 0 0 -1
vn 0 -1 0
vn 0 1 0

# texcoords
vt 0.396484 0.5
vt 0.849609 0.5
vt 0.958984 0.5

# verts
v -2 -2 1.4
v -2 -2 -2
v -2 1.3 1.5
v -2 1.3 1.4
v -2 1.4 1.8
v -2 1.4 1.5
v -2 1.7 1.9
v -2 1.7 1.8
v -2 1.8 2
v -2 1.8 1.9
v -2 1.8 1.8
v -2 1.8 -1.9
v -2 1.8 -2
v -2 1.9 -1.9
v -2 1.9 -2
v -2 2 2
v -2 2 -2
v -1.9 1.6 1.9
v -1.9 1.6 1.8
v -1.9 1.7 1.9
v -1.9 1.7 1.8
v -1.8 1.5 1.9
v -1.8 1.5 1.8
v -1.8 1.6 2
v -1.8 1.6 1.9
v -1.8 1.6 1.8
v -1.8 1.8 2
v -1.8 1.8 1.9
v -1.1 1.6 1.9
v -1.1 1.6 1.8
v -1.1 1.7 1.9
v -1.1 1.7 1.8
v -1 1.5 1.9
v -1 1.5 1.8
v -1 1.6 2
v -1 1.6 1.9
v -1 1.6 1.8
v -1 1.8 2
v -1 1.8 1.9
v -0.3 1.6 1.9
v -0.3 1.6 1.8
v -0.3 1.7 1.9
v -0.3 1.7 1.8
v -0.2 1.5 1.9
v -0.2 1.5 1.8
v -0.2 1.6 2
v -0.2 1.6 1.9
v -0.2 1.6 1.8
v -0.2 1.8 2
v -0.2 1.8 1.9
v 0.5 1.6 1.9
v 0.5 1.6 1.8
v 0.5 1.7 1.9
v 0.5 1.7 1.8
v 0.6 1.5 1.9
v 0.6 1.5 1.8
v 0.6 1.6 2
v 0.6 1.6 1.9
v 0.6 1.6 1.8
v 0.6 1.8 2
v 0.6 1.8 1.9
v 1.3 1.6 1.9
v 1.3 1.6 1.8
v 1.3 1.7 1.9
v 1.3 1.7 1.8
v 1.4 1.5 1.9
v 1.4 1.5 1.8
v 1.4 1.6 2
v 1.4 1.6 1.9
v 1.4 1.6 1.8
v 1.4 1.8 2
v 1.4 1.8 1.9
v 1.8 0.2 -0.8
v 1.8 0.2 -2
v 1.8 1.6 -0.8
v 1.8 1.6 -2
v -1.8 0.2 -0.8
v -1.8 0.2 -2
v -1.8 1.6 -0.8
v -1.8 1.6 -2
v -1.4 1.5 1.9
v -1.4 1.5 1.8
v -1.4 1.6 2
v -1.4 1.6 1.9
v -1.4 1.6 1.8
v -1.4 1.8 2
v -1.4 1.8 1.9
v -1.3 1.6 1.9
v -1.3 1.6 1.8
v -1.3 1.7 1.9
v -1.3 1.7 1.8
v -0.6 1.5 1.9
v -0.6 1.5 1.8
v -0.6 1.6 2
v -0.6 1.6 1.9
v -0.6 1.6 1.8
v -0.6 1.8 2
v -0.6 1.8 1.9
v -0.5 1.6 1.9
v -0.5 1.6 1.8
v -0.5 1.7 1.9
v -0.5 1.7 1.8
v 0.2 1.5 1.9
v 0.2 1.5 1.8
v 0.2 1.6 2
v 0.2 1.6 1.9
v 0.2 1.6 1.8
v 0.2 1.8 2
v 0.2 1.8 1.9
v 0.3 1.6 1.9
v 0.3 1.6 1.8
v 0.3 1.7 1.9
v 0.3 1.7 1.8
v 1 1.5 1.9
v 1 1.5 1.8
v 1 1.6 2
v 1 1.6 1.9
v 1 1.6 1.8
v 1 1.8 2
v 1 1.8 1.9
v 1.1 1.6 1.9
v 1.1 1.6 1.8
v 1.1 1.7 1.9
v 1.1 1.7 1.8
v 1.8 1.5 1.9
v 1.8 1.5 1.8
v 1.8 1.6 2
v 1.8 1.6 1.9
v 1.8 1.6 1.8
v 1.8 1.8 2
v 1.8 1.8 1.9
v 1.9 1.6 1.9
v 1.9 1.6 1.8
v 1.9 1.7 1.9
v 1.9 1.7 1.8
v 2 -2 1.4
v 2 -2 -2
v 2 1.3 1.5
v 2 1.3 1.4
v 2 1.4 1.8
v 2 1.4 1.5
v 2 1.7 1.9
v 2 1.7 1.8
v 2 1.8 2
v 2 1.8 1.9
v 2 1.8 1.8
v 2 1.8 -1.9
v 2 1.8 -2
v 2 1.9 -1.9
v 2 1.9 -2
v 2 2 2
v 2 2 -2
v -2 1.8 2
v -2 2 2
v -1.8 1.6 2
v -1.8 1.8 2
v -1.4 1.6 2
v -1.4 1.8 2
v -1 1.6 2
v -1 1.8 2
v -0.6 1.6 2
v -0.6 1.8 2
v -0.2 1.6 2
v -0.2 1.8 2
v 0.2 1.6 2
v 0.2 1.8 2
v 0.6 1.6 2
v 0.6 1.8 2
v 1 1.6 2
v 1 1.8 2
v 1.4 1.6 2
v 1.4 1.8 2
v 1.8 1.6 2
v 1.8 1.8 2
v 2 1.8 2
v 2 2 2
v -2 1.7 1.9
v -2 1.8 1.9
v -1.9 1.6 1.9
v -1.9 1.7 1.9
v -1.8 1.5 1.9
v -1.8 1.6 1.9
v -1.8 1.8 1.9
v -1.4 1.5 1.9
v -1.4 1.6 1.9
v -1.4 1.8 1.9
v -1.3 1.6 1.9
v -1.3 1.7 1.9
v -1.1 1.6 1.9
v -1.1 1.7 1.9
v -1 1.5 1.9
v -1 1.6 1.9
v -1 1.8 1.9
v -0.6 1.5 1.9
v -0.6 1.6 1.9
v -0.6 1.8 1.9
v -0.5 1.6 1.9
v -0.5 1.7 1.9
v -0.3 1.6 1.9
v -0.3 1.7 1.9
v -0.2 1.5 1.9
v -0.2 1.6 1.9
v -0.2 1.8 1.9
v 0.2 1.5 1.9
v 0.2 1.6 1.9
v 0.2 1.8 1.9
v 0.3 1.6 1.9
v 0.3 1.7 1.9
v 0.5 1.6 1.9
v 0.5 1.7 1.9
v 0.6 1.5 1.9
v 0.6 1.6 1.9
v 0.6 1.8 1.9
v 1 1.5 1.9
v 1 1.6 1.9
v 1 1.8 1.9
v 1.1 1.6 1.9
v 1.1 1.7 1.9
v 1.3 1.6 1.9
v 1.3 1.7 1.9
v 1.4 1.5 1.9
v 1.4 1.6 1.9
v 1.4 1.8 1.9
v 1.8 1.5 1.9
v 1.8 1.6 1.9
v 1.8 1.8 1.9
v 1.9 1.6 1.9
v 1.9 1.7 1.9
v 2 1.7 1.9
v 2 1.8 1.9
v -2 1.4 1.8
v -2 1.7 1.8
v -1.9 1.6 1.8
v -1.9 1.7 1.8
v -1.8 1.5 1.8
v -1.8 1.6 1.8
v -1.4 1.5 1.8
v -1.4 1.6 1.8
v -1.3 1.6 1.8
v -1.3 1.7 1.8
v -1.1 1.6 1.8
v -1.1 1.7 1.8
v -1 1.5 1.8
v -1 1.6 1.8
v -0.6 1.5 1.8
v -0.6 1.6 1.8
v -0.5 1.6 1.8
v -0.5 1.7 1.8
v -0.3 1.6 1.8
v -0.3 1.7 1.8
v -0.2 1.5 1.8
v -0.2 1.6 1.8
v 0.2 1.5 1.8
v 0.2 1.6 1.8
v 0.3 1.6 1.8
v 0.3 1.7 1.8
v 0.5 1.6 1.8
v 0.5 1.7 1.8
v 0.6 1.5 1.8
v 0.6 1.6 1.8
v 1 1.5 1.8
v 1 1.6 1.8
v 1.1 1.6 1.8
v 1.1 1.7 1.8
v 1.3 1.6 1.8
v 1.3 1.7 1.8
v 1.4 1.5 1.8
v 1.4 1.6 1.8
v 1.8 1.5 1.8
v 1.8 1.6 1.8
v 1.9 1.6 1.8
v 1.9 1.7 1.8
v 2 1.4 1.8
v 2 1.7 1.8
v -2 1.3 1.5
v -2 1.4 1.5
v 2 1.3 1.5
v 2 1.4 1.5
v -2 -2 1.4
v -2 1.3 1.4
v 2 -2 1.4
v 2 1.3 1.4
v -1.8 0.2 -0.8
v -1.8 1.6 -0.8
v 1.8 0.2 -0.8
v 1.8 1.6 -0.8
v -2 -2 -2
v -2 1.8 -2
v -2 1.9 -2
v -2 2 -2
v -1.8 0.2 -2
v -1.8 1.6 -2
v 1.8 0.2 -2
v 1.8 1.6 -2
v 2 -2 -2
v 2 1.8 -2
v 2 1.9 -2
v 2 2 -2
v -2 -2 1.4
v 2 -2 1.4
v -2 -2 -2
v 2 -2 -2
v -2 1.3 1.5
v 2 1.3 1.5
v -2 1.3 1.4
v 2 1.3 1.4
v -2 1.4 1.8
v 2 1.4 1.8
v -2 1.4 1.5
v 2 1.4 1.5
v -1.8 1.5 1.9
v -1.4 1.5 1.9
v -1 1.5 1.9
v -0.6 1.5 1.9
v -0.2 1.5 1.9
v 0.2 1.5 1.9
v 0.6 1.5 1.9
v 1 1.5 1.9
v 1.4 1.5 1.9
v 1.8 1.5 1.9
v -1.8 1.5 1.8
v -1.4 1.5 1.8
v -1 1.5 1.8
v -0.6 1.5 1.8
v -0.2 1.5 1.8
v 0.2 1.5 1.8
v 0.6 1.5 1.8
v 1 1.5 1.8
v 1.4 1.5 1.8
v 1.8 1.5 1.8
v -1.8 1.6 2
v -1.4 1.6 2
v -1 1.6 2
v -0.6 1.6 2
v -0.2 1.6 2
v 0.2 1.6 2
v 0.6 1.6 2
v 1 1.6 2
v 1.4 1.6 2
v 1.8 1.6 2
v -1.9 1.6 1.9
v -1.8 1.6 1.9
v -1.4 1.6 1.9
v -1.3 1.6 1.9
v -1.1 1.6 1.9
v -1 1.6 1.9
v -0.6 1.6 1.9
v -0.5 1.6 1.9
v -0.3 1.6 1.9
v -0.2 1.6 1.9
v 0.2 1.6 1.9
v 0.3 1.6 1.9
v 0.5 1.6 1.9
v 0.6 1.6 1.9
v 1 1.6 1.9
v 1.1 1.6 1.9
v 1.3 1.6 1.9
v 1.4 1.6 1.9
v 1.8 1.6 1.9
v 1.9 1.6 1.9
v -1.9 1.6 1.8
v -1.8 1.6 1.8
v -1.4 1.6 1.8
v -1.3 1.6 1.8
v -1.1 1.6 1.8
v -1 1.6 1.8
v -0.6 1.6 1.8
v -0.5 1.6 1.8
v -0.3 1.6 1.8
v -0.2 1.6 1.8
v 0.2 1.6 1.8
v 0.3 1.6 1.8
v 0.5 1.6 1.8
v 0.6 1.6 1.8
v 1 1.6 1.8
v 1.1 1.6 1.8
v 1.3 1.6 1.8
v 1.4 1.6 1.8
v 1.8 1.6 1.8
v 1.9 1.6 1.8
v -1.8 1.6 -0.8
v 1.8 1.6 -0.8
v -1.8 1.6 -2
v 1.8 1.6 -2
v -2 1.7 1.9
v -1.9 1.7 1.9
v -1.3 1.7 1.9
v -1.1 1.7 1.9
v -0.5 1.7 1.9
v -0.3 1.7 1.9
v 0.3 1.7 1.9
v 0.5 1.7 1.9
v 1.1 1.7 1.9
v 1.3 1.7 1.9
v 1.9 1.7 1.9
v 2 1.7 1.9
v -2 1.7 1.8
v -1.9 1.7 1.8
v -1.3 1.7 1.8
v -1.1 1.7 1.8
v -0.5 1.7 1.8
v -0.3 1.7 1.8
v 0.3 1.7 1.8
v 0.5 1.7 1.8
v 1.1 1.7 1.8
v 1.3 1.7 1.8
v 1.9 1.7 1.8
v 2 1.7 1.8
v -2 1.8 2
v -1.8 1.8 2
v -1.4 1.8 2
v -1 1.8 2
v -0.6 1.8 2
v -0.2 1.8 2
v 0.2 1.8 2
v 0.6 1.8 2
v 1 1.8 2
v 1.4 1.8 2
v 1.8 1.8 2
v 2 1.8 2
v -2 1.8 1.9
v -1.8 1.8 1.9
v -1.4 1.8 1.9
v -1 1.8 1.9
v -0.6 1.8 1.9
v -0.2 1.8 1.9
v 0.2 1.8 1.9
v 0.6 1.8 1.9
v 1 1.8 1.9
v 1.4 1.8 1.9
v 1.8 1.8 1.9
v 2 1.8 1.9
v -1.8 0.2 -0.8
v 1.8 0.2 -0.8
v -1.8 0.2 -2
v 1.8 0.2 -2
v -2 2 2
v 2 2 2
v -2 2 -2
v 2 2 -2

# faces
f 4/1/1 2/1/1 1/1/1
f 6/1/1 4/1/1 3/1/1
f 8/1/1 6/1/1 5/1/1
f 10/3/1 8/3/1 7/3/1
f 11/1/1 6/1/1 8/1/1
f 11/3/1 8/3/1 10/3/1
f 12/1/1 2/1/1 4/1/1
f 12/1/1 6/1/1 11/1/1
f 12/1/1 4/1/1 6/1/1
f 13/1/1 2/1/1 12/1/1
f 14/2/1 11/2/1 10/2/1
f 14/2/1 10/2/1 9/2/1
f 14/3/1 13/3/1 12/3/1
f 14/2/1 12/2/1 11/2/1
f 15/3/1 13/3/1 14/3/1
f 16/2/1 14/2/1 9/2/1
f 16/2/1 15/2/1 14/2/1
f 17/2/1 15/2/1 16/2/1
f 20/3/1 19/3/1 18/3/1
f 21/3/1 19/3/1 20/3/1
f 25/3/1 23/3/1 22/3/1
f 26/3/1 23/3/1 25/3/1
f 27/2/1 25/2/1 24/2/1
f 28/2/1 25/2/1 27/2/1
f 31/3/1 30/3/1 29/3/1
f 32/3/1 30/3/1 31/3/1
f 36/3/1 34/3/1 33/3/1
f 37/3/1 34/3/1 36/3/1
f 38/2/1 36/2/1 35/2/1
f 39/2/1 36/2/1 38/2/1
f 42/3/1 41/3/1 40/3/1
f 43/3/1 41/3/1 42/3/1
f 47/3/1 45/3/1 44/3/1
f 48/3/1 45/3/1 47/3/1
f 49/2/1 47/2/1 46/2/1
f 50/2/1 47/2/1 49/2/1
f 53/3/1 52/3/1 51/3/1
f 54/3/1 52/3/1 53/3/1
f 58/3/1 56/3/1 55/3/1
f 59/3/1 56/3/1 58/3/1
f 60/2/1 58/2/1 57/2/1
f 61/2/1 58/2/1 60/2/1
f 64/3/1 63/3/1 62/3/1
f 65/3/1 63/3/1 64/3/1
f 69/3/1 67/3/1 66/3/1
f 70/3/1 67/3/1 69/3/1
f 71/2/1 69/2/1 68/2/1
f 72/2/1 69/2/1 71/2/1
f 75/1/1 74/1/1 73/1/1
f 76/1/1 74/1/1 75/1/1
f 77/1/2 78/1/2 79/1/2
f 79/1/2 78/1/2 80/1/2
f 81/3/2 82/3/2 84/3/2
f 84/3/2 82/3/2 85/3/2
f 83/2/2 84/2/2 86/2/2
f 86/2/2 84/2/2 87/2/2
f 88/3/2 89/3/2 90/3/2
f 90/3/2 89/3/2 91/3/2
f 92/3/2 93/3/2 95/3/2
f 95/3/2 93/3/2 96/3/2
f 94/2/2 95/2/2 97/2/2
f 97/2/2 95/2/2 98/2/2
f 99/3/2 100/3/2 101/3/2
f 101/3/2 100/3/2 102/3/2
f 103/3/2 104/3/2 106/3/2
f 106/3/2 104/3/2 107/3/2
f 105/2/2 106/2/2 108/2/2
f 108/2/2 106/2/2 109/2/2
f 110/3/2 111/3/2 112/3/2
f 112/3/2 111/3/2 113/3/2
f 114/3/2 115/3/2 117/3/2
f 117/3/2 115/3/2 118/3/2
f 116/2/2 117/2/2 119/2/2
f 119/2/2 117/2/2 120/2/2
f 121/3/2 122/3/2 123/3/2
f 123/3/2 122/3/2 124/3/2
f 125/3/2 126/3/2 128/3/2
f 128/3/2 126/3/2 129/3/2
f 127/2/2 128/2/2 130/2/2
f 130/2/2 128/2/2 131/2/2
f 132/3/2 133/3/2 134/3/2
f 134/3/2 133/3/2 135/3/2
f 136/1/2 137/1/2 139/1/2
f 138/1/2 139/1/2 141/1/2
f 140/1/2 141/1/2 143/1/2
f 142/3/2 143/3/2 145/3/2
f 143/1/2 141/1/2 146/1/2
f 145/3/2 143/3/2 146/3/2
f 139/1/2 137/1/2 147/1/2
f 146/1/2 141/1/2 147/1/2
f 141/1/2 139/1/2 147/1/2
f 147/1/2 137/1/2 148/1/2
f 145/2/2 146/2/2 149/2/2
f 144/2/2 145/2/2 149/2/2
f 147/3/2 148/3/2 149/3/2
f 146/2/2 147/2/2 149/2/2
f 149/3/2 148/3/2 150/3/2
f 144/2/2 149/2/2 151/2/2
f 149/2/2 150/2/2 151/2/2
f 151/2/2 150/2/2 152/2/2
f 156/2/3 154/2/3 153/2/3
f 157/2/3 156/2/3 155/2/3
f 158/2/3 154/2/3 156/2/3
f 158/2/3 156/2/3 157/2/3
f 160/2/3 154/2/3 158/2/3
f 161/2/3 160/2/3 159/2/3
f 162/2/3 154/2/3 160/2/3
f 162/2/3 160/2/3 161/2/3
f 164/2/3 154/2/3 162/2/3
f 165/2/3 164/2/3 163/2/3
f 166/2/3 154/2/3 164/2/3
f 166/2/3 164/2/3 165/2/3
f 168/2/3 154/2/3 166/2/3
f 169/2/3 168/2/3 167/2/3
f 170/2/3 154/2/3 168/2/3
f 170/2/3 168/2/3 169/2/3
f 172/2/3 154/2/3 170/2/3
f 173/2/3 172/2/3 171/2/3
f 174/2/3 154/2/3 172/2/3
f 174/2/3 172/2/3 173/2/3
f 175/2/3 154/2/3 174/2/3
f 176/2/3 154/2/3 175/2/3
f 180/3/3 178/3/3 177/3/3
f 182/3/3 180/3/3 179/3/3
f 183/3/3 178/3/3 180/3/3
f 183/3/3 180/3/3 182/3/3
f 184/3/3 182/3/3 181/3/3
f 185/3/3 182/3/3 184/3/3
f 187/3/3 186/3/3 185/3/3
f 188/3/3 186/3/3 187/3/3
f 190/3/3 186/3/3 188/3/3
f 192/3/3 190/3/3 189/3/3
f 193/3/3 186/3/3 190/3/3
f 193/3/3 190/3/3 192/3/3
f 194/3/3 192/3/3 191/3/3
f 195/3/3 192/3/3 194/3/3
f 197/3/3 196/3/3 195/3/3
f 198/3/3 196/3/3 197/3/3
f 200/3/3 196/3/3 198/3/3
f 202/3/3 200/3/3 199/3/3
f 203/3/3 196/3/3 200/3/3
f 203/3/3 200/3/3 202/3/3
f 204/3/3 202/3/3 201/3/3
f 205/3/3 202/3/3 204/3/3
f 207/3/3 206/3/3 205/3/3
f 208/3/3 206/3/3 207/3/3
f 210/3/3 206/3/3 208/3/3
f 212/3/3 210/3/3 209/3/3
f 213/3/3 206/3/3 210/3/3
f 213/3/3 210/3/3 212/3/3
f 214/3/3 212/3/3 211/3/3
f 215/3/3 212/3/3 214/3/3
f 217/3/3 216/3/3 215/3/3
f 218/3/3 216/3/3 217/3/3
f 220/3/3 216/3/3 218/3/3
f 222/3/3 220/3/3 219/3/3
f 223/3/3 216/3/3 220/3/3
f 223/3/3 220/3/3 222/3/3
f 224/3/3 222/3/3 221/3/3
f 225/3/3 222/3/3 224/3/3
f 227/3/3 226/3/3 225/3/3
f 228/3/3 226/3/3 227/3/3
f 229/3/3 226/3/3 228/3/3
f 230/3/3 226/3/3 229/3/3
f 233/1/3 232/1/3 231/1/3
f 234/1/3 232/1/3 233/1/3
f 235/1/3 233/1/3 231/1/3
f 236/1/3 233/1/3 235/1/3
f 237/1/3 235/1/3 231/1/3
f 239/1/3 238/1/3 237/1/3
f 241/1/3 239/1/3 237/1/3
f 241/1/3 240/1/3 239/1/3
f 242/1/3 240/1/3 241/1/3
f 243/1/3 237/1/3 231/1/3
f 243/1/3 241/1/3 237/1/3
f 244/1/3 241/1/3 243/1/3
f 245/1/3 243/1/3 231/1/3
f 247/1/3 246/1/3 245/1/3
f 249/1/3 247/1/3 245/1/3
f 249/1/3 248/1/3 247/1/3
f 250/1/3 248/1/3 249/1/3
f 251/1/3 245/1/3 231/1/3
f 251/1/3 249/1/3 245/1/3
f 252/1/3 249/1/3 251/1/3
f 253/1/3 251/1/3 231/1/3
f 255/1/3 254/1/3 253/1/3
f 257/1/3 255/1/3 253/1/3
f 257/1/3 256/1/3 255/1/3
f 258/1/3 256/1/3 257/1/3
f 259/1/3 253/1/3 231/1/3
f 259/1/3 257/1/3 253/1/3
f 260/1/3 257/1/3 259/1/3
f 261/1/3 259/1/3 231/1/3
f 263/1/3 262/1/3 261/1/3
f 265/1/3 263/1/3 261/1/3
f 265/1/3 264/1/3 263/1/3
f 266/1/3 264/1/3 265/1/3
f 267/1/3 261/1/3 231/1/3
f 267/1/3 265/1/3 261/1/3
f 268/1/3 265/1/3 267/1/3
f 269/1/3 267/1/3 231/1/3
f 271/1/3 270/1/3 269/1/3
f 273/1/3 271/1/3 269/1/3
f 273/1/3 272/1/3 271/1/3
f 273/1/3 269/1/3 231/1/3
f 274/1/3 272/1/3 273/1/3
f 277/1/3 276/1/3 275/1/3
f 278/1/3 276/1/3 277/1/3
f 281/1/3 280/1/3 279/1/3
f 282/1/3 280/1/3 281/1/3
f 283/1/4 284/1/4 285/1/4
f 285/1/4 284/1/4 286/1/4
f 287/1/4 288/1/4 291/1/4
f 291/1/4 288/1/4 292/1/4
f 287/1/4 291/1/4 293/1/4
f 292/1/4 288/1/4 294/1/4
f 287/1/4 293/1/4 295/1/4
f 293/1/4 294/1/4 295/1/4
f 288/3/4 289/3/4 296/3/4
f 295/1/4 294/1/4 296/1/4
f 294/1/4 288/1/4 296/1/4
f 289/2/4 290/2/4 297/2/4
f 296/3/4 289/3/4 297/3/4
f 297/2/4 290/2/4 298/2/4
f 301/1/5 300/1/5 299/1/5
f 302/1/5 300/1/5 301/1/5
f 305/1/5 304/1/5 303/1/5
f 306/1/5 304/1/5 305/1/5
f 309/1/5 308/1/5 307/1/5
f 310/1/5 308/1/5 309/1/5
f 321/3/5 312/3/5 311/3/5
f 322/3/5 312/3/5 321/3/5
f 323/3/5 314/3/5 313/3/5
f 324/3/5 314/3/5 323/3/5
f 325/3/5 316/3/5 315/3/5
f 326/3/5 316/3/5 325/3/5
f 327/3/5 318/3/5 317/3/5
f 328/3/5 318/3/5 327/3/5
f 329/3/5 320/3/5 319/3/5
f 330/3/5 320/3/5 329/3/5
f 342/2/5 332/2/5 331/2/5
f 343/2/5 332/2/5 342/2/5
f 346/2/5 334/2/5 333/2/5
f 347/2/5 334/2/5 346/2/5
f 350/2/5 336/2/5 335/2/5
f 351/2/5 336/2/5 350/2/5
f 354/2/5 338/2/5 337/2/5
f 355/2/5 338/2/5 354/2/5
f 358/2/5 340/2/5 339/2/5
f 359/2/5 340/2/5 358/2/5
f 361/3/5 342/3/5 341/3/5
f 362/3/5 342/3/5 361/3/5
f 363/3/5 344/3/5 343/3/5
f 364/3/5 344/3/5 363/3/5
f 365/3/5 346/3/5 345/3/5
f 366/3/5 346/3/5 365/3/5
f 367/3/5 348/3/5 347/3/5
f 368/3/5 348/3/5 367/3/5
f 369/3/5 350/3/5 349/3/5
f 370/3/5 350/3/5 369/3/5
f 371/3/5 352/3/5 351/3/5
f 372/3/5 352/3/5 371/3/5
f 373/3/5 354/3/5 353/3/5
f 374/3/5 354/3/5 373/3/5
f 375/3/5 356/3/5 355/3/5
f 376/3/5 356/3/5 375/3/5
f 377/3/5 358/3/5 357/3/5
f 378/3/5 358/3/5 377/3/5
f 379/3/5 360/3/5 359/3/5
f 380/3/5 360/3/5 379/3/5
f 383/1/5 382/1/5 381/1/5
f 384/1/5 382/1/5 383/1/5
f 397/3/5 386/3/5 385/3/5
f 398/3/5 386/3/5 397/3/5
f 399/3/5 388/3/5 387/3/5
f 400/3/5 388/3/5 399/3/5
f 401/3/5 390/3/5 389/3/5
f 402/3/5 390/3/5 401/3/5
f 403/3/5 392/3/5 391/3/5
f 404/3/5 392/3/5 403/3/5
f 405/3/5 394/3/5 393/3/5
f 406/3/5 394/3/5 405/3/5
f 407/3/5 396/3/5 395/3/5
f 408/3/5 396/3/5 407/3/5
f 421/2/5 410/2/5 409/2/5
f 422/2/5 410/2/5 421/2/5
f 423/2/5 412/2/5 411/2/5
f 424/2/5 412/2/5 423/2/5
f 425/2/5 414/2/5 413/2/5
f 426/2/5 414/2/5 425/2/5
f 427/2/5 416/2/5 415/2/5
f 428/2/5 416/2/5 427/2/5
f 429/2/5 418/2/5 417/2/5
f 430/2/5 418/2/5 429/2/5
f 431/2/5 420/2/5 419/2/5
f 432/2/5 420/2/5 431/2/5
f 433/1/6 434/1/6 435/1/6
f 435/1/6 434/1/6 436/1/6
f 437/2/6 438/2/6 439/2/6
f 439/2/6 438/2/6 440/2/6
