# MagicaVoxel @ Ephtracy

# group
o 

# material
mtllib Wall_Window.mtl
usemtl palette

# normals
vn -1 0 0
vn 1 0 0
vn 0 0 1
vn 0 0 -1
vn 0 -1 0
vn 0 1 0

# texcoords
vt 0.841797 0.5
vt 0.873047 0.5

# verts
v -5 0 0.3
v -5 0 -0.3
v -5 10 0.3
v -5 10 -0.3
v -4.4 0 0.3
v -4.4 0 0.2
v -4.4 10 0.3
v -4.4 10 0.2
v -3.8 0 0.3
v -3.8 0 0.2
v -3.8 10 0.3
v -3.8 10 0.2
v -3.2 0 0.3
v -3.2 0 0.2
v -3.2 10 0.3
v -3.2 10 0.2
v -2.6 0 0.3
v -2.6 0 0.2
v -2.6 2.2 0.3
v -2.6 2.2 0.2
v -2.6 7.7 0.3
v -2.6 7.7 0.2
v -2.6 10 0.3
v -2.6 10 0.2
v -2 0 0.3
v -2 0 0.2
v -2 2.2 0.3
v -2 2.2 0.2
v -2 7.7 0.3
v -2 7.7 0.2
v -2 10 0.3
v -2 10 0.2
v -1.3 0 0.3
v -1.3 0 0.2
v -1.3 2.2 0.3
v -1.3 2.2 0.2
v -1.3 7.7 0.3
v -1.3 7.7 0.2
v -1.3 10 0.3
v -1.3 10 0.2
v -0.6 0 0.3
v -0.6 0 0.2
v -0.6 2.2 0.3
v -0.6 2.2 0.2
v -0.6 7.7 0.3
v -0.6 7.7 0.2
v -0.6 10 0.3
v -0.6 10 0.2
v 0.2 0 0.3
v 0.2 0 0.2
v 0.2 2.2 0.3
v 0.2 2.2 0.2
v 0.2 7.7 0.3
v 0.2 7.7 0.2
v 0.2 10 0.3
v 0.2 10 0.2
v 0.9 0 0.3
v 0.9 0 0.2
v 0.9 2.2 0.3
v 0.9 2.2 0.2
v 0.9 7.7 0.3
v 0.9 7.7 0.2
v 0.9 10 0.3
v 0.9 10 0.2
v 1.6 0 0.3
v 1.6 0 0.2
v 1.6 2.2 0.3
v 1.6 2.2 0.2
v 1.6 7.7 0.3
v 1.6 7.7 0.2
v 1.6 10 0.3
v 1.6 10 0.2
v 2.2 0 0.3
v 2.2 0 0.2
v 2.2 2.2 0.3
v 2.2 2.2 0.2
v 2.2 7.7 0.3
v 2.2 7.7 0.2
v 2.2 10 0.3
v 2.2 10 0.2
v 2.6 2.4 0.3
v 2.6 2.4 -0.3
v 2.6 7.5 0.3
v 2.6 7.5 -0.3
v 2.8 0 0.3
v 2.8 0 0.2
v 2.8 2.2 0.3
v 2.8 2.2 0.2
v 2.8 7.7 0.3
v 2.8 7.7 0.2
v 2.8 10 0.3
v 2.8 10 0.2
v 3.4 0 0.3
v 3.4 0 0.2
v 3.4 10 0.3
v 3.4 10 0.2
v 4 0 0.3
v 4 0 0.2
v 4 10 0.3
v 4 10 0.2
v 4.6 0 0.3
v 4.6 0 0.2
v 4.6 10 0.3
v 4.6 10 0.2
v -4.6 0 0.3
v -4.6 0 0.2
v -4.6 10 0.3
v -4.6 10 0.2
v -4 0 0.3
v -4 0 0.2
v -4 10 0.3
v -4 10 0.2
v -3.4 0 0.3
v -3.4 0 0.2
v -3.4 10 0.3
v -3.4 10 0.2
v -2.8 0 0.3
v -2.8 0 0.2
v -2.8 2.2 0.3
v -2.8 2.2 0.2
v -2.8 7.7 0.3
v -2.8 7.7 0.2
v -2.8 10 0.3
v -2.8 10 0.2
v -2.6 2.4 0.3
v -2.6 2.4 -0.3
v -2.6 7.5 0.3
v -2.6 7.5 -0.3
v -2.2 0 0.3
v -2.2 0 0.2
v -2.2 2.2 0.3
v -2.2 2.2 0.2
v -2.2 7.7 0.3
v -2.2 7.7 0.2
v -2.2 10 0.3
v -2.2 10 0.2
v -1.6 0 0.3
v -1.6 0 0.2
v -1.6 2.2 0.3
v -1.6 2.2 0.2
v -1.6 7.7 0.3
v -1.6 7.7 0.2
v -1.6 10 0.3
v -1.6 10 0.2
v -0.9 0 0.3
v -0.9 0 0.2
v -0.9 2.2 0.3
v -0.9 2.2 0.2
v -0.9 7.7 0.3
v -0.9 7.7 0.2
v -0.9 10 0.3
v -0.9 10 0.2
v -0.2 0 0.3
v -0.2 0 0.2
v -0.2 2.2 0.3
v -0.2 2.2 0.2
v -0.2 7.7 0.3
v -0.2 7.7 0.2
v -0.2 10 0.3
v -0.2 10 0.2
v 0.6 0 0.3
v 0.6 0 0.2
v 0.6 2.2 0.3
v 0.6 2.2 0.2
v 0.6 7.7 0.3
v 0.6 7.7 0.2
v 0.6 10 0.3
v 0.6 10 0.2
v 1.3 0 0.3
v 1.3 0 0.2
v 1.3 2.2 0.3
v 1.3 2.2 0.2
v 1.3 7.7 0.3
v 1.3 7.7 0.2
v 1.3 10 0.3
v 1.3 10 0.2
v 2 0 0.3
v 2 0 0.2
v 2 2.2 0.3
v 2 2.2 0.2
v 2 7.7 0.3
v 2 7.7 0.2
v 2 10 0.3
v 2 10 0.2
v 2.6 0 0.3
v 2.6 0 0.2
v 2.6 2.2 0.3
v 2.6 2.2 0.2
v 2.6 7.7 0.3
v 2.6 7.7 0.2
v 2.6 10 0.3
v 2.6 10 0.2
v 3.2 0 0.3
v 3.2 0 0.2
v 3.2 10 0.3
v 3.2 10 0.2
v 3.8 0 0.3
v 3.8 0 0.2
v 3.8 10 0.3
v 3.8 10 0.2
v 4.4 0 0.3
v 4.4 0 0.2
v 4.4 10 0.3
v 4.4 10 0.2
v 5 0 0.3
v 5 0 -0.3
v 5 10 0.3
v 5 10 -0.3
v -5 0 0.3
v -5 10 0.3
v -4.6 0 0.3
v -4.6 10 0.3
v -4.4 0 0.3
v -4.4 10 0.3
v -4 0 0.3
v -4 10 0.3
v -3.8 0 0.3
v -3.8 10 0.3
v -3.4 0 0.3
v -3.4 10 0.3
v -3.2 0 0.3
v -3.2 10 0.3
v -2.8 0 0.3
v -2.8 2.2 0.3
v -2.8 7.7 0.3
v -2.8 10 0.3
v -2.6 0 0.3
v -2.6 2.2 0.3
v -2.6 2.4 0.3
v -2.6 7.5 0.3
v -2.6 7.7 0.3
v -2.6 10 0.3
v -2.2 0 0.3
v -2.2 2.2 0.3
v -2.2 7.7 0.3
v -2.2 10 0.3
v -2 0 0.3
v -2 2.2 0.3
v -2 7.7 0.3
v -2 10 0.3
v -1.6 0 0.3
v -1.6 2.2 0.3
v -1.6 7.7 0.3
v -1.6 10 0.3
v -1.3 0 0.3
v -1.3 2.2 0.3
v -1.3 7.7 0.3
v -1.3 10 0.3
v -0.9 0 0.3
v -0.9 2.2 0.3
v -0.9 7.7 0.3
v -0.9 10 0.3
v -0.6 0 0.3
v -0.6 2.2 0.3
v -0.6 7.7 0.3
v -0.6 10 0.3
v -0.2 0 0.3
v -0.2 2.2 0.3
v -0.2 7.7 0.3
v -0.2 10 0.3
v 0.2 0 0.3
v 0.2 2.2 0.3
v 0.2 7.7 0.3
v 0.2 10 0.3
v 0.6 0 0.3
v 0.6 2.2 0.3
v 0.6 7.7 0.3
v 0.6 10 0.3
v 0.9 0 0.3
v 0.9 2.2 0.3
v 0.9 7.7 0.3
v 0.9 10 0.3
v 1.3 0 0.3
v 1.3 2.2 0.3
v 1.3 7.7 0.3
v 1.3 10 0.3
v 1.6 0 0.3
v 1.6 2.2 0.3
v 1.6 7.7 0.3
v 1.6 10 0.3
v 2 0 0.3
v 2 2.2 0.3
v 2 7.7 0.3
v 2 10 0.3
v 2.2 0 0.3
v 2.2 2.2 0.3
v 2.2 7.7 0.3
v 2.2 10 0.3
v 2.6 0 0.3
v 2.6 2.2 0.3
v 2.6 2.4 0.3
v 2.6 7.5 0.3
v 2.6 7.7 0.3
v 2.6 10 0.3
v 2.8 0 0.3
v 2.8 2.2 0.3
v 2.8 7.7 0.3
v 2.8 10 0.3
v 3.2 0 0.3
v 3.2 10 0.3
v 3.4 0 0.3
v 3.4 10 0.3
v 3.8 0 0.3
v 3.8 10 0.3
v 4 0 0.3
v 4 10 0.3
v 4.4 0 0.3
v 4.4 10 0.3
v 4.6 0 0.3
v 4.6 10 0.3
v 5 0 0.3
v 5 10 0.3
v -4.6 0 0.2
v -4.6 10 0.2
v -4.4 0 0.2
v -4.4 10 0.2
v -4 0 0.2
v -4 10 0.2
v -3.8 0 0.2
v -3.8 10 0.2
v -3.4 0 0.2
v -3.4 10 0.2
v -3.2 0 0.2
v -3.2 10 0.2
v -2.8 0 0.2
v -2.8 2.2 0.2
v -2.8 7.7 0.2
v -2.8 10 0.2
v -2.6 0 0.2
v -2.6 2.2 0.2
v -2.6 7.7 0.2
v -2.6 10 0.2
v -2.2 0 0.2
v -2.2 2.2 0.2
v -2.2 7.7 0.2
v -2.2 10 0.2
v -2 0 0.2
v -2 2.2 0.2
v -2 7.7 0.2
v -2 10 0.2
v -1.6 0 0.2
v -1.6 2.2 0.2
v -1.6 7.7 0.2
v -1.6 10 0.2
v -1.3 0 0.2
v -1.3 2.2 0.2
v -1.3 7.7 0.2
v -1.3 10 0.2
v -0.9 0 0.2
v -0.9 2.2 0.2
v -0.9 7.7 0.2
v -0.9 10 0.2
v -0.6 0 0.2
v -0.6 2.2 0.2
v -0.6 7.7 0.2
v -0.6 10 0.2
v -0.2 0 0.2
v -0.2 2.2 0.2
v -0.2 7.7 0.2
v -0.2 10 0.2
v 0.2 0 0.2
v 0.2 2.2 0.2
v 0.2 7.7 0.2
v 0.2 10 0.2
v 0.6 0 0.2
v 0.6 2.2 0.2
v 0.6 7.7 0.2
v 0.6 10 0.2
v 0.9 0 0.2
v 0.9 2.2 0.2
v 0.9 7.7 0.2
v 0.9 10 0.2
v 1.3 0 0.2
v 1.3 2.2 0.2
v 1.3 7.7 0.2
v 1.3 10 0.2
v 1.6 0 0.2
v 1.6 2.2 0.2
v 1.6 7.7 0.2
v 1.6 10 0.2
v 2 0 0.2
v 2 2.2 0.2
v 2 7.7 0.2
v 2 10 0.2
v 2.2 0 0.2
v 2.2 2.2 0.2
v 2.2 7.7 0.2
v 2.2 10 0.2
v 2.6 0 0.2
v 2.6 2.2 0.2
v 2.6 7.7 0.2
v 2.6 10 0.2
v 2.8 0 0.2
v 2.8 2.2 0.2
v 2.8 7.7 0.2
v 2.8 10 0.2
v 3.2 0 0.2
v 3.2 10 0.2
v 3.4 0 0.2
v 3.4 10 0.2
v 3.8 0 0.2
v 3.8 10 0.2
v 4 0 0.2
v 4 10 0.2
v 4.4 0 0.2
v 4.4 10 0.2
v 4.6 0 0.2
v 4.6 10 0.2
v -5 0 -0.3
v -5 10 -0.3
v -2.6 2.4 -0.3
v -2.6 7.5 -0.3
v 2.6 2.4 -0.3
v 2.6 7.5 -0.3
v 5 0 -0.3
v 5 10 -0.3
v -5 0 0.3
v -4.6 0 0.3
v -4.4 0 0.3
v -4 0 0.3
v -3.8 0 0.3
v -3.4 0 0.3
v -3.2 0 0.3
v -2.8 0 0.3
v -2.6 0 0.3
v -2.2 0 0.3
v -2 0 0.3
v -1.6 0 0.3
v -1.3 0 0.3
v -0.9 0 0.3
v -0.6 0 0.3
v -0.2 0 0.3
v 0.2 0 0.3
v 0.6 0 0.3
v 0.9 0 0.3
v 1.3 0 0.3
v 1.6 0 0.3
v 2 0 0.3
v 2.2 0 0.3
v 2.6 0 0.3
v 2.8 0 0.3
v 3.2 0 0.3
v 3.4 0 0.3
v 3.8 0 0.3
v 4 0 0.3
v 4.4 0 0.3
v 4.6 0 0.3
v 5 0 0.3
v -4.6 0 0.2
v -4.4 0 0.2
v -4 0 0.2
v -3.8 0 0.2
v -3.4 0 0.2
v -3.2 0 0.2
v -2.8 0 0.2
v -2.6 0 0.2
v -2.2 0 0.2
v -2 0 0.2
v -1.6 0 0.2
v -1.3 0 0.2
v -0.9 0 0.2
v -0.6 0 0.2
v -0.2 0 0.2
v 0.2 0 0.2
v 0.6 0 0.2
v 0.9 0 0.2
v 1.3 0 0.2
v 1.6 0 0.2
v 2 0 0.2
v 2.2 0 0.2
v 2.6 0 0.2
v 2.8 0 0.2
v 3.2 0 0.2
v 3.4 0 0.2
v 3.8 0 0.2
v 4 0 0.2
v 4.4 0 0.2
v 4.6 0 0.2
v -4.6 0 0.1
v 4.6 0 0.1
v -5 0 -0.3
v 5 0 -0.3
v -2.8 2.2 0.3
v -2.6 2.2 0.3
v -2.2 2.2 0.3
v -2 2.2 0.3
v -1.6 2.2 0.3
v -1.3 2.2 0.3
v -0.9 2.2 0.3
v -0.6 2.2 0.3
v -0.2 2.2 0.3
v 0.2 2.2 0.3
v 0.6 2.2 0.3
v 0.9 2.2 0.3
v 1.3 2.2 0.3
v 1.6 2.2 0.3
v 2 2.2 0.3
v 2.2 2.2 0.3
v 2.6 2.2 0.3
v 2.8 2.2 0.3
v -2.8 2.2 0.2
v -2.6 2.2 0.2
v -2.2 2.2 0.2
v -2 2.2 0.2
v -1.6 2.2 0.2
v -1.3 2.2 0.2
v -0.9 2.2 0.2
v -0.6 2.2 0.2
v -0.2 2.2 0.2
v 0.2 2.2 0.2
v 0.6 2.2 0.2
v 0.9 2.2 0.2
v 1.3 2.2 0.2
v 1.6 2.2 0.2
v 2 2.2 0.2
v 2.2 2.2 0.2
v 2.6 2.2 0.2
v 2.8 2.2 0.2
v -2.6 7.5 0.3
v 2.6 7.5 0.3
v -2.6 7.5 -0.3
v 2.6 7.5 -0.3
v -2.6 2.4 0.3
v 2.6 2.4 0.3
v -2.6 2.4 -0.3
v 2.6 2.4 -0.3
v -2.8 7.7 0.3
v -2.6 7.7 0.3
v -2.2 7.7 0.3
v -2 7.7 0.3
v -1.6 7.7 0.3
v -1.3 7.7 0.3
v -0.9 7.7 0.3
v -0.6 7.7 0.3
v -0.2 7.7 0.3
v 0.2 7.7 0.3
v 0.6 7.7 0.3
v 0.9 7.7 0.3
v 1.3 7.7 0.3
v 1.6 7.7 0.3
v 2 7.7 0.3
v 2.2 7.7 0.3
v 2.6 7.7 0.3
v 2.8 7.7 0.3
v -2.8 7.7 0.2
v -2.6 7.7 0.2
v -2.2 7.7 0.2
v -2 7.7 0.2
v -1.6 7.7 0.2
v -1.3 7.7 0.2
v -0.9 7.7 0.2
v -0.6 7.7 0.2
v -0.2 7.7 0.2
v 0.2 7.7 0.2
v 0.6 7.7 0.2
v 0.9 7.7 0.2
v 1.3 7.7 0.2
v 1.6 7.7 0.2
v 2 7.7 0.2
v 2.2 7.7 0.2
v 2.6 7.7 0.2
v 2.8 7.7 0.2
v -5 10 0.3
v -4.6 10 0.3
v -4.4 10 0.3
v -4 10 0.3
v -3.8 10 0.3
v -3.4 10 0.3
v -3.2 10 0.3
v -2.8 10 0.3
v -2.6 10 0.3
v -2.2 10 0.3
v -2 10 0.3
v -1.6 10 0.3
v -1.3 10 0.3
v -0.9 10 0.3
v -0.6 10 0.3
v -0.2 10 0.3
v 0.2 10 0.3
v 0.6 10 0.3
v 0.9 10 0.3
v 1.3 10 0.3
v 1.6 10 0.3
v 2 10 0.3
v 2.2 10 0.3
v 2.6 10 0.3
v 2.8 10 0.3
v 3.2 10 0.3
v 3.4 10 0.3
v 3.8 10 0.3
v 4 10 0.3
v 4.4 10 0.3
v 4.6 10 0.3
v 5 10 0.3
v -4.6 10 0.2
v -4.4 10 0.2
v -4 10 0.2
v -3.8 10 0.2
v -3.4 10 0.2
v -3.2 10 0.2
v -2.8 10 0.2
v -2.6 10 0.2
v -2.2 10 0.2
v -2 10 0.2
v -1.6 10 0.2
v -1.3 10 0.2
v -0.9 10 0.2
v -0.6 10 0.2
v -0.2 10 0.2
v 0.2 10 0.2
v 0.6 10 0.2
v 0.9 10 0.2
v 1.3 10 0.2
v 1.6 10 0.2
v 2 10 0.2
v 2.2 10 0.2
v 2.6 10 0.2
v 2.8 10 0.2
v 3.2 10 0.2
v 3.4 10 0.2
v 3.8 10 0.2
v 4 10 0.2
v 4.4 10 0.2
v 4.6 10 0.2
v -4.6 10 0.1
v -4.4 10 0.1
v -4 10 0.1
v -3.8 10 0.1
v -3.4 10 0.1
v -3.2 10 0.1
v -2.8 10 0.1
v -2.6 10 0.1
v -2.2 10 0.1
v -2 10 0.1
v -1.6 10 0.1
v -1.3 10 0.1
v -0.9 10 0.1
v -0.6 10 0.1
v -0.2 10 0.1
v 0.2 10 0.1
v 0.6 10 0.1
v 0.9 10 0.1
v 1.3 10 0.1
v 1.6 10 0.1
v 2 10 0.1
v 2.2 10 0.1
v 2.6 10 0.1
v 2.8 10 0.1
v 3.2 10 0.1
v 3.4 10 0.1
v 3.8 10 0.1
v 4 10 0.1
v 4.4 10 0.1
v 4.6 10 0.1
v -5 10 -0.3
v 5 10 -0.3

# faces
f 3/2/1 2/2/1 1/2/1
f 4/2/1 2/2/1 3/2/1
f 7/2/1 6/2/1 5/2/1
f 8/2/1 6/2/1 7/2/1
f 11/2/1 10/2/1 9/2/1
f 12/2/1 10/2/1 11/2/1
f 15/2/1 14/2/1 13/2/1
f 16/2/1 14/2/1 15/2/1
f 19/2/1 18/2/1 17/2/1
f 20/2/1 18/2/1 19/2/1
f 23/2/1 22/2/1 21/2/1
f 24/2/1 22/2/1 23/2/1
f 27/2/1 26/2/1 25/2/1
f 28/2/1 26/2/1 27/2/1
f 31/2/1 30/2/1 29/2/1
f 32/2/1 30/2/1 31/2/1
f 35/2/1 34/2/1 33/2/1
f 36/2/1 34/2/1 35/2/1
f 39/2/1 38/2/1 37/2/1
f 40/2/1 38/2/1 39/2/1
f 43/2/1 42/2/1 41/2/1
f 44/2/1 42/2/1 43/2/1
f 47/2/1 46/2/1 45/2/1
f 48/2/1 46/2/1 47/2/1
f 51/2/1 50/2/1 49/2/1
f 52/2/1 50/2/1 51/2/1
f 55/2/1 54/2/1 53/2/1
f 56/2/1 54/2/1 55/2/1
f 59/2/1 58/2/1 57/2/1
f 60/2/1 58/2/1 59/2/1
f 63/2/1 62/2/1 61/2/1
f 64/2/1 62/2/1 63/2/1
f 67/2/1 66/2/1 65/2/1
f 68/2/1 66/2/1 67/2/1
f 71/2/1 70/2/1 69/2/1
f 72/2/1 70/2/1 71/2/1
f 75/2/1 74/2/1 73/2/1
f 76/2/1 74/2/1 75/2/1
f 79/2/1 78/2/1 77/2/1
f 80/2/1 78/2/1 79/2/1
f 83/2/1 82/2/1 81/2/1
f 84/2/1 82/2/1 83/2/1
f 87/2/1 86/2/1 85/2/1
f 88/2/1 86/2/1 87/2/1
f 91/2/1 90/2/1 89/2/1
f 92/2/1 90/2/1 91/2/1
f 95/2/1 94/2/1 93/2/1
f 96/2/1 94/2/1 95/2/1
f 99/2/1 98/2/1 97/2/1
f 100/2/1 98/2/1 99/2/1
f 103/2/1 102/2/1 101/2/1
f 104/2/1 102/2/1 103/2/1
f 105/2/2 106/2/2 107/2/2
f 107/2/2 106/2/2 108/2/2
f 109/2/2 110/2/2 111/2/2
f 111/2/2 110/2/2 112/2/2
f 113/2/2 114/2/2 115/2/2
f 115/2/2 114/2/2 116/2/2
f 117/2/2 118/2/2 119/2/2
f 119/2/2 118/2/2 120/2/2
f 121/2/2 122/2/2 123/2/2
f 123/2/2 122/2/2 124/2/2
f 125/2/2 126/2/2 127/2/2
f 127/2/2 126/2/2 128/2/2
f 129/2/2 130/2/2 131/2/2
f 131/2/2 130/2/2 132/2/2
f 133/2/2 134/2/2 135/2/2
f 135/2/2 134/2/2 136/2/2
f 137/2/2 138/2/2 139/2/2
f 139/2/2 138/2/2 140/2/2
f 141/2/2 142/2/2 143/2/2
f 143/2/2 142/2/2 144/2/2
f 145/2/2 146/2/2 147/2/2
f 147/2/2 146/2/2 148/2/2
f 149/2/2 150/2/2 151/2/2
f 151/2/2 150/2/2 152/2/2
f 153/2/2 154/2/2 155/2/2
f 155/2/2 154/2/2 156/2/2
f 157/2/2 158/2/2 159/2/2
f 159/2/2 158/2/2 160/2/2
f 161/2/2 162/2/2 163/2/2
f 163/2/2 162/2/2 164/2/2
f 165/2/2 166/2/2 167/2/2
f 167/2/2 166/2/2 168/2/2
f 169/2/2 170/2/2 171/2/2
f 171/2/2 170/2/2 172/2/2
f 173/2/2 174/2/2 175/2/2
f 175/2/2 174/2/2 176/2/2
f 177/2/2 178/2/2 179/2/2
f 179/2/2 178/2/2 180/2/2
f 181/2/2 182/2/2 183/2/2
f 183/2/2 182/2/2 184/2/2
f 185/2/2 186/2/2 187/2/2
f 187/2/2 186/2/2 188/2/2
f 189/2/2 190/2/2 191/2/2
f 191/2/2 190/2/2 192/2/2
f 193/2/2 194/2/2 195/2/2
f 195/2/2 194/2/2 196/2/2
f 197/2/2 198/2/2 199/2/2
f 199/2/2 198/2/2 200/2/2
f 201/2/2 202/2/2 203/2/2
f 203/2/2 202/2/2 204/2/2
f 205/2/2 206/2/2 207/2/2
f 207/2/2 206/2/2 208/2/2
f 211/2/3 210/2/3 209/2/3
f 212/2/3 210/2/3 211/2/3
f 215/2/3 214/2/3 213/2/3
f 216/2/3 214/2/3 215/2/3
f 219/2/3 218/2/3 217/2/3
f 220/2/3 218/2/3 219/2/3
f 223/2/3 222/2/3 221/2/3
f 224/2/3 222/2/3 223/2/3
f 225/2/3 222/2/3 224/2/3
f 226/2/3 222/2/3 225/2/3
f 228/2/3 225/2/3 224/2/3
f 229/2/3 225/2/3 228/2/3
f 230/2/3 225/2/3 229/2/3
f 231/2/3 225/2/3 230/2/3
f 233/2/3 228/2/3 227/2/3
f 233/2/3 229/2/3 228/2/3
f 234/2/3 229/2/3 233/2/3
f 235/2/3 232/2/3 231/2/3
f 235/2/3 231/2/3 230/2/3
f 236/2/3 232/2/3 235/2/3
f 238/2/3 229/2/3 234/2/3
f 239/2/3 235/2/3 230/2/3
f 241/2/3 238/2/3 237/2/3
f 242/2/3 229/2/3 238/2/3
f 242/2/3 238/2/3 241/2/3
f 243/2/3 240/2/3 239/2/3
f 243/2/3 239/2/3 230/2/3
f 244/2/3 240/2/3 243/2/3
f 246/2/3 229/2/3 242/2/3
f 247/2/3 243/2/3 230/2/3
f 249/2/3 246/2/3 245/2/3
f 250/2/3 229/2/3 246/2/3
f 250/2/3 246/2/3 249/2/3
f 251/2/3 248/2/3 247/2/3
f 251/2/3 247/2/3 230/2/3
f 252/2/3 248/2/3 251/2/3
f 254/2/3 229/2/3 250/2/3
f 255/2/3 251/2/3 230/2/3
f 257/2/3 254/2/3 253/2/3
f 258/2/3 229/2/3 254/2/3
f 258/2/3 254/2/3 257/2/3
f 259/2/3 256/2/3 255/2/3
f 259/2/3 255/2/3 230/2/3
f 260/2/3 256/2/3 259/2/3
f 262/2/3 229/2/3 258/2/3
f 263/2/3 259/2/3 230/2/3
f 265/2/3 262/2/3 261/2/3
f 266/2/3 229/2/3 262/2/3
f 266/2/3 262/2/3 265/2/3
f 267/2/3 264/2/3 263/2/3
f 267/2/3 263/2/3 230/2/3
f 268/2/3 264/2/3 267/2/3
f 270/2/3 229/2/3 266/2/3
f 271/2/3 267/2/3 230/2/3
f 273/2/3 270/2/3 269/2/3
f 274/2/3 229/2/3 270/2/3
f 274/2/3 270/2/3 273/2/3
f 275/2/3 272/2/3 271/2/3
f 275/2/3 271/2/3 230/2/3
f 276/2/3 272/2/3 275/2/3
f 278/2/3 229/2/3 274/2/3
f 279/2/3 275/2/3 230/2/3
f 281/2/3 278/2/3 277/2/3
f 282/2/3 229/2/3 278/2/3
f 282/2/3 278/2/3 281/2/3
f 283/2/3 280/2/3 279/2/3
f 283/2/3 279/2/3 230/2/3
f 284/2/3 280/2/3 283/2/3
f 286/2/3 229/2/3 282/2/3
f 287/2/3 283/2/3 230/2/3
f 289/2/3 286/2/3 285/2/3
f 290/2/3 229/2/3 286/2/3
f 290/2/3 286/2/3 289/2/3
f 291/2/3 229/2/3 290/2/3
f 292/2/3 288/2/3 287/2/3
f 292/2/3 287/2/3 230/2/3
f 293/2/3 288/2/3 292/2/3
f 294/2/3 288/2/3 293/2/3
f 296/2/3 291/2/3 290/2/3
f 296/2/3 293/2/3 292/2/3
f 296/2/3 292/2/3 291/2/3
f 297/2/3 293/2/3 296/2/3
f 299/2/3 296/2/3 295/2/3
f 299/2/3 298/2/3 297/2/3
f 299/2/3 297/2/3 296/2/3
f 300/2/3 298/2/3 299/2/3
f 303/2/3 302/2/3 301/2/3
f 304/2/3 302/2/3 303/2/3
f 307/2/3 306/2/3 305/2/3
f 308/2/3 306/2/3 307/2/3
f 311/2/3 310/2/3 309/2/3
f 312/2/3 310/2/3 311/2/3
f 315/1/3 314/1/3 313/1/3
f 316/1/3 314/1/3 315/1/3
f 319/1/3 318/1/3 317/1/3
f 320/1/3 318/1/3 319/1/3
f 323/1/3 322/1/3 321/1/3
f 324/1/3 322/1/3 323/1/3
f 329/1/3 326/1/3 325/1/3
f 330/1/3 326/1/3 329/1/3
f 331/1/3 328/1/3 327/1/3
f 332/1/3 328/1/3 331/1/3
f 337/1/3 334/1/3 333/1/3
f 338/1/3 334/1/3 337/1/3
f 339/1/3 336/1/3 335/1/3
f 340/1/3 336/1/3 339/1/3
f 345/1/3 342/1/3 341/1/3
f 346/1/3 342/1/3 345/1/3
f 347/1/3 344/1/3 343/1/3
f 348/1/3 344/1/3 347/1/3
f 353/1/3 350/1/3 349/1/3
f 354/1/3 350/1/3 353/1/3
f 355/1/3 352/1/3 351/1/3
f 356/1/3 352/1/3 355/1/3
f 361/1/3 358/1/3 357/1/3
f 362/1/3 358/1/3 361/1/3
f 363/1/3 360/1/3 359/1/3
f 364/1/3 360/1/3 363/1/3
f 369/1/3 366/1/3 365/1/3
f 370/1/3 366/1/3 369/1/3
f 371/1/3 368/1/3 367/1/3
f 372/1/3 368/1/3 371/1/3
f 377/1/3 374/1/3 373/1/3
f 378/1/3 374/1/3 377/1/3
f 379/1/3 376/1/3 375/1/3
f 380/1/3 376/1/3 379/1/3
f 385/1/3 382/1/3 381/1/3
f 386/1/3 382/1/3 385/1/3
f 387/1/3 384/1/3 383/1/3
f 388/1/3 384/1/3 387/1/3
f 393/1/3 390/1/3 389/1/3
f 394/1/3 390/1/3 393/1/3
f 395/1/3 392/1/3 391/1/3
f 396/1/3 392/1/3 395/1/3
f 399/1/3 398/1/3 397/1/3
f 400/1/3 398/1/3 399/1/3
f 403/1/3 402/1/3 401/1/3
f 404/1/3 402/1/3 403/1/3
f 407/1/3 406/1/3 405/1/3
f 408/1/3 406/1/3 407/1/3
f 409/2/4 410/2/4 411/2/4
f 411/2/4 410/2/4 412/2/4
f 409/2/4 411/2/4 413/2/4
f 412/2/4 410/2/4 414/2/4
f 409/2/4 413/2/4 415/2/4
f 413/2/4 414/2/4 415/2/4
f 414/2/4 410/2/4 416/2/4
f 415/2/4 414/2/4 416/2/4
f 449/2/5 418/2/5 417/2/5
f 450/2/5 420/2/5 419/2/5
f 451/2/5 420/2/5 450/2/5
f 452/2/5 422/2/5 421/2/5
f 453/2/5 422/2/5 452/2/5
f 454/2/5 424/2/5 423/2/5
f 455/2/5 424/2/5 454/2/5
f 456/2/5 426/2/5 425/2/5
f 457/2/5 426/2/5 456/2/5
f 458/2/5 428/2/5 427/2/5
f 459/2/5 428/2/5 458/2/5
f 460/2/5 430/2/5 429/2/5
f 461/2/5 430/2/5 460/2/5
f 462/2/5 432/2/5 431/2/5
f 463/2/5 432/2/5 462/2/5
f 464/2/5 434/2/5 433/2/5
f 465/2/5 434/2/5 464/2/5
f 466/2/5 436/2/5 435/2/5
f 467/2/5 436/2/5 466/2/5
f 468/2/5 438/2/5 437/2/5
f 469/2/5 438/2/5 468/2/5
f 470/2/5 440/2/5 439/2/5
f 471/2/5 440/2/5 470/2/5
f 472/2/5 442/2/5 441/2/5
f 473/2/5 442/2/5 472/2/5
f 474/2/5 444/2/5 443/2/5
f 475/2/5 444/2/5 474/2/5
f 476/2/5 446/2/5 445/2/5
f 477/2/5 446/2/5 476/2/5
f 478/2/5 448/2/5 447/2/5
f 479/1/5 477/1/5 476/1/5
f 479/1/5 478/1/5 477/1/5
f 479/2/5 449/2/5 417/2/5
f 479/1/5 451/1/5 450/1/5
f 479/1/5 476/1/5 475/1/5
f 479/1/5 453/1/5 452/1/5
f 479/1/5 474/1/5 473/1/5
f 479/1/5 455/1/5 454/1/5
f 479/1/5 472/1/5 471/1/5
f 479/1/5 457/1/5 456/1/5
f 479/1/5 470/1/5 469/1/5
f 479/1/5 459/1/5 458/1/5
f 479/1/5 468/1/5 467/1/5
f 479/1/5 461/1/5 460/1/5
f 479/1/5 466/1/5 465/1/5
f 479/1/5 463/1/5 462/1/5
f 479/1/5 464/1/5 463/1/5
f 479/1/5 465/1/5 464/1/5
f 479/1/5 462/1/5 461/1/5
f 479/1/5 467/1/5 466/1/5
f 479/1/5 460/1/5 459/1/5
f 479/1/5 469/1/5 468/1/5
f 479/1/5 458/1/5 457/1/5
f 479/1/5 471/1/5 470/1/5
f 479/1/5 456/1/5 455/1/5
f 479/1/5 473/1/5 472/1/5
f 479/1/5 454/1/5 453/1/5
f 479/1/5 475/1/5 474/1/5
f 479/1/5 452/1/5 451/1/5
f 479/1/5 450/1/5 449/1/5
f 480/2/5 448/2/5 478/2/5
f 480/1/5 478/1/5 479/1/5
f 481/2/5 479/2/5 417/2/5
f 481/2/5 480/2/5 479/2/5
f 482/2/5 448/2/5 480/2/5
f 482/2/5 480/2/5 481/2/5
f 501/2/5 484/2/5 483/2/5
f 502/2/5 484/2/5 501/2/5
f 503/2/5 486/2/5 485/2/5
f 504/2/5 486/2/5 503/2/5
f 505/2/5 488/2/5 487/2/5
f 506/2/5 488/2/5 505/2/5
f 507/2/5 490/2/5 489/2/5
f 508/2/5 490/2/5 507/2/5
f 509/2/5 492/2/5 491/2/5
f 510/2/5 492/2/5 509/2/5
f 511/2/5 494/2/5 493/2/5
f 512/2/5 494/2/5 511/2/5
f 513/2/5 496/2/5 495/2/5
f 514/2/5 496/2/5 513/2/5
f 515/2/5 498/2/5 497/2/5
f 516/2/5 498/2/5 515/2/5
f 517/2/5 500/2/5 499/2/5
f 518/2/5 500/2/5 517/2/5
f 521/2/5 520/2/5 519/2/5
f 522/2/5 520/2/5 521/2/5
f 523/2/6 524/2/6 525/2/6
f 525/2/6 524/2/6 526/2/6
f 527/2/6 528/2/6 545/2/6
f 545/2/6 528/2/6 546/2/6
f 529/2/6 530/2/6 547/2/6
f 547/2/6 530/2/6 548/2/6
f 531/2/6 532/2/6 549/2/6
f 549/2/6 532/2/6 550/2/6
f 533/2/6 534/2/6 551/2/6
f 551/2/6 534/2/6 552/2/6
f 535/2/6 536/2/6 553/2/6
f 553/2/6 536/2/6 554/2/6
f 537/2/6 538/2/6 555/2/6
f 555/2/6 538/2/6 556/2/6
f 539/2/6 540/2/6 557/2/6
f 557/2/6 540/2/6 558/2/6
f 541/2/6 542/2/6 559/2/6
f 559/2/6 542/2/6 560/2/6
f 543/2/6 544/2/6 561/2/6
f 561/2/6 544/2/6 562/2/6
f 563/2/6 564/2/6 595/2/6
f 565/2/6 566/2/6 596/2/6
f 596/2/6 566/2/6 597/2/6
f 567/2/6 568/2/6 598/2/6
f 598/2/6 568/2/6 599/2/6
f 569/2/6 570/2/6 600/2/6
f 600/2/6 570/2/6 601/2/6
f 571/2/6 572/2/6 602/2/6
f 602/2/6 572/2/6 603/2/6
f 573/2/6 574/2/6 604/2/6
f 604/2/6 574/2/6 605/2/6
f 575/2/6 576/2/6 606/2/6
f 606/2/6 576/2/6 607/2/6
f 577/2/6 578/2/6 608/2/6
f 608/2/6 578/2/6 609/2/6
f 579/2/6 580/2/6 610/2/6
f 610/2/6 580/2/6 611/2/6
f 581/2/6 582/2/6 612/2/6
f 612/2/6 582/2/6 613/2/6
f 583/2/6 584/2/6 614/2/6
f 614/2/6 584/2/6 615/2/6
f 585/2/6 586/2/6 616/2/6
f 616/2/6 586/2/6 617/2/6
f 587/2/6 588/2/6 618/2/6
f 618/2/6 588/2/6 619/2/6
f 589/2/6 590/2/6 620/2/6
f 620/2/6 590/2/6 621/2/6
f 591/2/6 592/2/6 622/2/6
f 622/2/6 592/2/6 623/2/6
f 593/2/6 594/2/6 624/2/6
f 563/2/6 595/2/6 625/2/6
f 595/1/6 596/1/6 625/1/6
f 596/2/6 597/2/6 626/2/6
f 625/1/6 596/1/6 626/1/6
f 597/1/6 598/1/6 627/1/6
f 626/2/6 597/2/6 627/2/6
f 598/2/6 599/2/6 628/2/6
f 627/1/6 598/1/6 628/1/6
f 599/1/6 600/1/6 629/1/6
f 628/2/6 599/2/6 629/2/6
f 600/2/6 601/2/6 630/2/6
f 629/1/6 600/1/6 630/1/6
f 601/1/6 602/1/6 631/1/6
f 630/2/6 601/2/6 631/2/6
f 602/2/6 603/2/6 632/2/6
f 631/1/6 602/1/6 632/1/6
f 603/1/6 604/1/6 633/1/6
f 632/2/6 603/2/6 633/2/6
f 604/2/6 605/2/6 634/2/6
f 633/1/6 604/1/6 634/1/6
f 605/1/6 606/1/6 635/1/6
f 634/2/6 605/2/6 635/2/6
f 606/2/6 607/2/6 636/2/6
f 635/1/6 606/1/6 636/1/6
f 607/1/6 608/1/6 637/1/6
f 636/2/6 607/2/6 637/2/6
f 608/2/6 609/2/6 638/2/6
f 637/1/6 608/1/6 638/1/6
f 609/1/6 610/1/6 639/1/6
f 638/2/6 609/2/6 639/2/6
f 610/2/6 611/2/6 640/2/6
f 639/1/6 610/1/6 640/1/6
f 611/1/6 612/1/6 641/1/6
f 640/2/6 611/2/6 641/2/6
f 612/2/6 613/2/6 642/2/6
f 641/1/6 612/1/6 642/1/6
f 613/1/6 614/1/6 643/1/6
f 642/2/6 613/2/6 643/2/6
f 614/2/6 615/2/6 644/2/6
f 643/1/6 614/1/6 644/1/6
f 615/1/6 616/1/6 645/1/6
f 644/2/6 615/2/6 645/2/6
f 616/2/6 617/2/6 646/2/6
f 645/1/6 616/1/6 646/1/6
f 617/1/6 618/1/6 647/1/6
f 646/2/6 617/2/6 647/2/6
f 618/2/6 619/2/6 648/2/6
f 647/1/6 618/1/6 648/1/6
f 619/1/6 620/1/6 649/1/6
f 648/2/6 619/2/6 649/2/6
f 620/2/6 621/2/6 650/2/6
f 649/1/6 620/1/6 650/1/6
f 621/1/6 622/1/6 651/1/6
f 650/2/6 621/2/6 651/2/6
f 622/2/6 623/2/6 652/2/6
f 651/1/6 622/1/6 652/1/6
f 623/1/6 624/1/6 653/1/6
f 652/2/6 623/2/6 653/2/6
f 624/2/6 594/2/6 654/2/6
f 653/1/6 624/1/6 654/1/6
f 650/2/6 651/2/6 655/2/6
f 651/2/6 652/2/6 655/2/6
f 653/2/6 654/2/6 655/2/6
f 563/2/6 625/2/6 655/2/6
f 649/2/6 650/2/6 655/2/6
f 626/2/6 627/2/6 655/2/6
f 647/2/6 648/2/6 655/2/6
f 628/2/6 629/2/6 655/2/6
f 645/2/6 646/2/6 655/2/6
f 630/2/6 631/2/6 655/2/6
f 643/2/6 644/2/6 655/2/6
f 632/2/6 633/2/6 655/2/6
f 641/2/6 642/2/6 655/2/6
f 634/2/6 635/2/6 655/2/6
f 639/2/6 640/2/6 655/2/6
f 636/2/6 637/2/6 655/2/6
f 637/2/6 638/2/6 655/2/6
f 638/2/6 639/2/6 655/2/6
f 635/2/6 636/2/6 655/2/6
f 640/2/6 641/2/6 655/2/6
f 633/2/6 634/2/6 655/2/6
f 642/2/6 643/2/6 655/2/6
f 631/2/6 632/2/6 655/2/6
f 644/2/6 645/2/6 655/2/6
f 629/2/6 630/2/6 655/2/6
f 646/2/6 647/2/6 655/2/6
f 627/2/6 628/2/6 655/2/6
f 648/2/6 649/2/6 655/2/6
f 625/2/6 626/2/6 655/2/6
f 652/2/6 653/2/6 655/2/6
f 654/2/6 594/2/6 656/2/6
f 655/2/6 654/2/6 656/2/6
