# MagicaVoxel @ Ephtracy

# group
o 

# material
mtllib Wall_half_UpDown.mtl
usemtl palette

# normals
vn -1 0 0
vn 1 0 0
vn 0 0 1
vn 0 0 -1
vn 0 -1 0
vn 0 1 0

# texcoords
vt 0.841797 0.5
vt 0.873047 0.5

# verts
v -5 0 0.3
v -5 0 -0.3
v -5 5 0.3
v -5 5 -0.3
v -4.4 0 0.3
v -4.4 0 0.2
v -4.4 5 0.3
v -4.4 5 0.2
v -3.8 0 0.3
v -3.8 0 0.2
v -3.8 5 0.3
v -3.8 5 0.2
v -3.2 0 0.3
v -3.2 0 0.2
v -3.2 5 0.3
v -3.2 5 0.2
v -2.6 0 0.3
v -2.6 0 0.2
v -2.6 5 0.3
v -2.6 5 0.2
v -2 0 0.3
v -2 0 0.2
v -2 5 0.3
v -2 5 0.2
v -1.3 0 0.3
v -1.3 0 0.2
v -1.3 5 0.3
v -1.3 5 0.2
v -0.6 0 0.3
v -0.6 0 0.2
v -0.6 5 0.3
v -0.6 5 0.2
v 0.2 0 0.3
v 0.2 0 0.2
v 0.2 5 0.3
v 0.2 5 0.2
v 0.9 0 0.3
v 0.9 0 0.2
v 0.9 5 0.3
v 0.9 5 0.2
v 1.6 0 0.3
v 1.6 0 0.2
v 1.6 5 0.3
v 1.6 5 0.2
v 2.2 0 0.3
v 2.2 0 0.2
v 2.2 5 0.3
v 2.2 5 0.2
v 2.8 0 0.3
v 2.8 0 0.2
v 2.8 5 0.3
v 2.8 5 0.2
v 3.4 0 0.3
v 3.4 0 0.2
v 3.4 5 0.3
v 3.4 5 0.2
v 4 0 0.3
v 4 0 0.2
v 4 5 0.3
v 4 5 0.2
v 4.6 0 0.3
v 4.6 0 0.2
v 4.6 5 0.3
v 4.6 5 0.2
v -4.6 0 0.3
v -4.6 0 0.2
v -4.6 5 0.3
v -4.6 5 0.2
v -4 0 0.3
v -4 0 0.2
v -4 5 0.3
v -4 5 0.2
v -3.4 0 0.3
v -3.4 0 0.2
v -3.4 5 0.3
v -3.4 5 0.2
v -2.8 0 0.3
v -2.8 0 0.2
v -2.8 5 0.3
v -2.8 5 0.2
v -2.2 0 0.3
v -2.2 0 0.2
v -2.2 5 0.3
v -2.2 5 0.2
v -1.6 0 0.3
v -1.6 0 0.2
v -1.6 5 0.3
v -1.6 5 0.2
v -0.9 0 0.3
v -0.9 0 0.2
v -0.9 5 0.3
v -0.9 5 0.2
v -0.2 0 0.3
v -0.2 0 0.2
v -0.2 5 0.3
v -0.2 5 0.2
v 0.6 0 0.3
v 0.6 0 0.2
v 0.6 5 0.3
v 0.6 5 0.2
v 1.3 0 0.3
v 1.3 0 0.2
v 1.3 5 0.3
v 1.3 5 0.2
v 2 0 0.3
v 2 0 0.2
v 2 5 0.3
v 2 5 0.2
v 2.6 0 0.3
v 2.6 0 0.2
v 2.6 5 0.3
v 2.6 5 0.2
v 3.2 0 0.3
v 3.2 0 0.2
v 3.2 5 0.3
v 3.2 5 0.2
v 3.8 0 0.3
v 3.8 0 0.2
v 3.8 5 0.3
v 3.8 5 0.2
v 4.4 0 0.3
v 4.4 0 0.2
v 4.4 5 0.3
v 4.4 5 0.2
v 5 0 0.3
v 5 0 -0.3
v 5 5 0.3
v 5 5 -0.3
v -5 0 0.3
v -5 5 0.3
v -4.6 0 0.3
v -4.6 5 0.3
v -4.4 0 0.3
v -4.4 5 0.3
v -4 0 0.3
v -4 5 0.3
v -3.8 0 0.3
v -3.8 5 0.3
v -3.4 0 0.3
v -3.4 5 0.3
v -3.2 0 0.3
v -3.2 5 0.3
v -2.8 0 0.3
v -2.8 5 0.3
v -2.6 0 0.3
v -2.6 5 0.3
v -2.2 0 0.3
v -2.2 5 0.3
v -2 0 0.3
v -2 5 0.3
v -1.6 0 0.3
v -1.6 5 0.3
v -1.3 0 0.3
v -1.3 5 0.3
v -0.9 0 0.3
v -0.9 5 0.3
v -0.6 0 0.3
v -0.6 5 0.3
v -0.2 0 0.3
v -0.2 5 0.3
v 0.2 0 0.3
v 0.2 5 0.3
v 0.6 0 0.3
v 0.6 5 0.3
v 0.9 0 0.3
v 0.9 5 0.3
v 1.3 0 0.3
v 1.3 5 0.3
v 1.6 0 0.3
v 1.6 5 0.3
v 2 0 0.3
v 2 5 0.3
v 2.2 0 0.3
v 2.2 5 0.3
v 2.6 0 0.3
v 2.6 5 0.3
v 2.8 0 0.3
v 2.8 5 0.3
v 3.2 0 0.3
v 3.2 5 0.3
v 3.4 0 0.3
v 3.4 5 0.3
v 3.8 0 0.3
v 3.8 5 0.3
v 4 0 0.3
v 4 5 0.3
v 4.4 0 0.3
v 4.4 5 0.3
v 4.6 0 0.3
v 4.6 5 0.3
v 5 0 0.3
v 5 5 0.3
v -4.6 0 0.2
v -4.6 5 0.2
v -4.4 0 0.2
v -4.4 5 0.2
v -4 0 0.2
v -4 5 0.2
v -3.8 0 0.2
v -3.8 5 0.2
v -3.4 0 0.2
v -3.4 5 0.2
v -3.2 0 0.2
v -3.2 5 0.2
v -2.8 0 0.2
v -2.8 5 0.2
v -2.6 0 0.2
v -2.6 5 0.2
v -2.2 0 0.2
v -2.2 5 0.2
v -2 0 0.2
v -2 5 0.2
v -1.6 0 0.2
v -1.6 5 0.2
v -1.3 0 0.2
v -1.3 5 0.2
v -0.9 0 0.2
v -0.9 5 0.2
v -0.6 0 0.2
v -0.6 5 0.2
v -0.2 0 0.2
v -0.2 5 0.2
v 0.2 0 0.2
v 0.2 5 0.2
v 0.6 0 0.2
v 0.6 5 0.2
v 0.9 0 0.2
v 0.9 5 0.2
v 1.3 0 0.2
v 1.3 5 0.2
v 1.6 0 0.2
v 1.6 5 0.2
v 2 0 0.2
v 2 5 0.2
v 2.2 0 0.2
v 2.2 5 0.2
v 2.6 0 0.2
v 2.6 5 0.2
v 2.8 0 0.2
v 2.8 5 0.2
v 3.2 0 0.2
v 3.2 5 0.2
v 3.4 0 0.2
v 3.4 5 0.2
v 3.8 0 0.2
v 3.8 5 0.2
v 4 0 0.2
v 4 5 0.2
v 4.4 0 0.2
v 4.4 5 0.2
v 4.6 0 0.2
v 4.6 5 0.2
v -5 0 -0.3
v -5 5 -0.3
v 5 0 -0.3
v 5 5 -0.3
v -5 0 0.3
v -4.6 0 0.3
v -4.4 0 0.3
v -4 0 0.3
v -3.8 0 0.3
v -3.4 0 0.3
v -3.2 0 0.3
v -2.8 0 0.3
v -2.6 0 0.3
v -2.2 0 0.3
v -2 0 0.3
v -1.6 0 0.3
v -1.3 0 0.3
v -0.9 0 0.3
v -0.6 0 0.3
v -0.2 0 0.3
v 0.2 0 0.3
v 0.6 0 0.3
v 0.9 0 0.3
v 1.3 0 0.3
v 1.6 0 0.3
v 2 0 0.3
v 2.2 0 0.3
v 2.6 0 0.3
v 2.8 0 0.3
v 3.2 0 0.3
v 3.4 0 0.3
v 3.8 0 0.3
v 4 0 0.3
v 4.4 0 0.3
v 4.6 0 0.3
v 5 0 0.3
v -4.6 0 0.2
v -4.4 0 0.2
v -4 0 0.2
v -3.8 0 0.2
v -3.4 0 0.2
v -3.2 0 0.2
v -2.8 0 0.2
v -2.6 0 0.2
v -2.2 0 0.2
v -2 0 0.2
v -1.6 0 0.2
v -1.3 0 0.2
v -0.9 0 0.2
v -0.6 0 0.2
v -0.2 0 0.2
v 0.2 0 0.2
v 0.6 0 0.2
v 0.9 0 0.2
v 1.3 0 0.2
v 1.6 0 0.2
v 2 0 0.2
v 2.2 0 0.2
v 2.6 0 0.2
v 2.8 0 0.2
v 3.2 0 0.2
v 3.4 0 0.2
v 3.8 0 0.2
v 4 0 0.2
v 4.4 0 0.2
v 4.6 0 0.2
v -4.6 0 0.1
v 4.6 0 0.1
v -5 0 -0.3
v 5 0 -0.3
v -5 5 0.3
v -4.6 5 0.3
v -4.4 5 0.3
v -4 5 0.3
v -3.8 5 0.3
v -3.4 5 0.3
v -3.2 5 0.3
v -2.8 5 0.3
v -2.6 5 0.3
v -2.2 5 0.3
v -2 5 0.3
v -1.6 5 0.3
v -1.3 5 0.3
v -0.9 5 0.3
v -0.6 5 0.3
v -0.2 5 0.3
v 0.2 5 0.3
v 0.6 5 0.3
v 0.9 5 0.3
v 1.3 5 0.3
v 1.6 5 0.3
v 2 5 0.3
v 2.2 5 0.3
v 2.6 5 0.3
v 2.8 5 0.3
v 3.2 5 0.3
v 3.4 5 0.3
v 3.8 5 0.3
v 4 5 0.3
v 4.4 5 0.3
v 4.6 5 0.3
v 5 5 0.3
v -4.6 5 0.2
v -4.4 5 0.2
v -4 5 0.2
v -3.8 5 0.2
v -3.4 5 0.2
v -3.2 5 0.2
v -2.8 5 0.2
v -2.6 5 0.2
v -2.2 5 0.2
v -2 5 0.2
v -1.6 5 0.2
v -1.3 5 0.2
v -0.9 5 0.2
v -0.6 5 0.2
v -0.2 5 0.2
v 0.2 5 0.2
v 0.6 5 0.2
v 0.9 5 0.2
v 1.3 5 0.2
v 1.6 5 0.2
v 2 5 0.2
v 2.2 5 0.2
v 2.6 5 0.2
v 2.8 5 0.2
v 3.2 5 0.2
v 3.4 5 0.2
v 3.8 5 0.2
v 4 5 0.2
v 4.4 5 0.2
v 4.6 5 0.2
v -4.6 5 0.1
v -4.4 5 0.1
v -4 5 0.1
v -3.8 5 0.1
v -3.4 5 0.1
v -3.2 5 0.1
v -2.8 5 0.1
v -2.6 5 0.1
v -2.2 5 0.1
v -2 5 0.1
v -1.6 5 0.1
v -1.3 5 0.1
v -0.9 5 0.1
v -0.6 5 0.1
v -0.2 5 0.1
v 0.2 5 0.1
v 0.6 5 0.1
v 0.9 5 0.1
v 1.3 5 0.1
v 1.6 5 0.1
v 2 5 0.1
v 2.2 5 0.1
v 2.6 5 0.1
v 2.8 5 0.1
v 3.2 5 0.1
v 3.4 5 0.1
v 3.8 5 0.1
v 4 5 0.1
v 4.4 5 0.1
v 4.6 5 0.1
v -5 5 -0.3
v 5 5 -0.3

# faces
f 3/2/1 2/2/1 1/2/1
f 4/2/1 2/2/1 3/2/1
f 7/2/1 6/2/1 5/2/1
f 8/2/1 6/2/1 7/2/1
f 11/2/1 10/2/1 9/2/1
f 12/2/1 10/2/1 11/2/1
f 15/2/1 14/2/1 13/2/1
f 16/2/1 14/2/1 15/2/1
f 19/2/1 18/2/1 17/2/1
f 20/2/1 18/2/1 19/2/1
f 23/2/1 22/2/1 21/2/1
f 24/2/1 22/2/1 23/2/1
f 27/2/1 26/2/1 25/2/1
f 28/2/1 26/2/1 27/2/1
f 31/2/1 30/2/1 29/2/1
f 32/2/1 30/2/1 31/2/1
f 35/2/1 34/2/1 33/2/1
f 36/2/1 34/2/1 35/2/1
f 39/2/1 38/2/1 37/2/1
f 40/2/1 38/2/1 39/2/1
f 43/2/1 42/2/1 41/2/1
f 44/2/1 42/2/1 43/2/1
f 47/2/1 46/2/1 45/2/1
f 48/2/1 46/2/1 47/2/1
f 51/2/1 50/2/1 49/2/1
f 52/2/1 50/2/1 51/2/1
f 55/2/1 54/2/1 53/2/1
f 56/2/1 54/2/1 55/2/1
f 59/2/1 58/2/1 57/2/1
f 60/2/1 58/2/1 59/2/1
f 63/2/1 62/2/1 61/2/1
f 64/2/1 62/2/1 63/2/1
f 65/2/2 66/2/2 67/2/2
f 67/2/2 66/2/2 68/2/2
f 69/2/2 70/2/2 71/2/2
f 71/2/2 70/2/2 72/2/2
f 73/2/2 74/2/2 75/2/2
f 75/2/2 74/2/2 76/2/2
f 77/2/2 78/2/2 79/2/2
f 79/2/2 78/2/2 80/2/2
f 81/2/2 82/2/2 83/2/2
f 83/2/2 82/2/2 84/2/2
f 85/2/2 86/2/2 87/2/2
f 87/2/2 86/2/2 88/2/2
f 89/2/2 90/2/2 91/2/2
f 91/2/2 90/2/2 92/2/2
f 93/2/2 94/2/2 95/2/2
f 95/2/2 94/2/2 96/2/2
f 97/2/2 98/2/2 99/2/2
f 99/2/2 98/2/2 100/2/2
f 101/2/2 102/2/2 103/2/2
f 103/2/2 102/2/2 104/2/2
f 105/2/2 106/2/2 107/2/2
f 107/2/2 106/2/2 108/2/2
f 109/2/2 110/2/2 111/2/2
f 111/2/2 110/2/2 112/2/2
f 113/2/2 114/2/2 115/2/2
f 115/2/2 114/2/2 116/2/2
f 117/2/2 118/2/2 119/2/2
f 119/2/2 118/2/2 120/2/2
f 121/2/2 122/2/2 123/2/2
f 123/2/2 122/2/2 124/2/2
f 125/2/2 126/2/2 127/2/2
f 127/2/2 126/2/2 128/2/2
f 131/2/3 130/2/3 129/2/3
f 132/2/3 130/2/3 131/2/3
f 135/2/3 134/2/3 133/2/3
f 136/2/3 134/2/3 135/2/3
f 139/2/3 138/2/3 137/2/3
f 140/2/3 138/2/3 139/2/3
f 143/2/3 142/2/3 141/2/3
f 144/2/3 142/2/3 143/2/3
f 147/2/3 146/2/3 145/2/3
f 148/2/3 146/2/3 147/2/3
f 151/2/3 150/2/3 149/2/3
f 152/2/3 150/2/3 151/2/3
f 155/2/3 154/2/3 153/2/3
f 156/2/3 154/2/3 155/2/3
f 159/2/3 158/2/3 157/2/3
f 160/2/3 158/2/3 159/2/3
f 163/2/3 162/2/3 161/2/3
f 164/2/3 162/2/3 163/2/3
f 167/2/3 166/2/3 165/2/3
f 168/2/3 166/2/3 167/2/3
f 171/2/3 170/2/3 169/2/3
f 172/2/3 170/2/3 171/2/3
f 175/2/3 174/2/3 173/2/3
f 176/2/3 174/2/3 175/2/3
f 179/2/3 178/2/3 177/2/3
f 180/2/3 178/2/3 179/2/3
f 183/2/3 182/2/3 181/2/3
f 184/2/3 182/2/3 183/2/3
f 187/2/3 186/2/3 185/2/3
f 188/2/3 186/2/3 187/2/3
f 191/2/3 190/2/3 189/2/3
f 192/2/3 190/2/3 191/2/3
f 195/1/3 194/1/3 193/1/3
f 196/1/3 194/1/3 195/1/3
f 199/1/3 198/1/3 197/1/3
f 200/1/3 198/1/3 199/1/3
f 203/1/3 202/1/3 201/1/3
f 204/1/3 202/1/3 203/1/3
f 207/1/3 206/1/3 205/1/3
f 208/1/3 206/1/3 207/1/3
f 211/1/3 210/1/3 209/1/3
f 212/1/3 210/1/3 211/1/3
f 215/1/3 214/1/3 213/1/3
f 216/1/3 214/1/3 215/1/3
f 219/1/3 218/1/3 217/1/3
f 220/1/3 218/1/3 219/1/3
f 223/1/3 222/1/3 221/1/3
f 224/1/3 222/1/3 223/1/3
f 227/1/3 226/1/3 225/1/3
f 228/1/3 226/1/3 227/1/3
f 231/1/3 230/1/3 229/1/3
f 232/1/3 230/1/3 231/1/3
f 235/1/3 234/1/3 233/1/3
f 236/1/3 234/1/3 235/1/3
f 239/1/3 238/1/3 237/1/3
f 240/1/3 238/1/3 239/1/3
f 243/1/3 242/1/3 241/1/3
f 244/1/3 242/1/3 243/1/3
f 247/1/3 246/1/3 245/1/3
f 248/1/3 246/1/3 247/1/3
f 251/1/3 250/1/3 249/1/3
f 252/1/3 250/1/3 251/1/3
f 253/2/4 254/2/4 255/2/4
f 255/2/4 254/2/4 256/2/4
f 289/2/5 258/2/5 257/2/5
f 290/2/5 260/2/5 259/2/5
f 291/2/5 260/2/5 290/2/5
f 292/2/5 262/2/5 261/2/5
f 293/2/5 262/2/5 292/2/5
f 294/2/5 264/2/5 263/2/5
f 295/2/5 264/2/5 294/2/5
f 296/2/5 266/2/5 265/2/5
f 297/2/5 266/2/5 296/2/5
f 298/2/5 268/2/5 267/2/5
f 299/2/5 268/2/5 298/2/5
f 300/2/5 270/2/5 269/2/5
f 301/2/5 270/2/5 300/2/5
f 302/2/5 272/2/5 271/2/5
f 303/2/5 272/2/5 302/2/5
f 304/2/5 274/2/5 273/2/5
f 305/2/5 274/2/5 304/2/5
f 306/2/5 276/2/5 275/2/5
f 307/2/5 276/2/5 306/2/5
f 308/2/5 278/2/5 277/2/5
f 309/2/5 278/2/5 308/2/5
f 310/2/5 280/2/5 279/2/5
f 311/2/5 280/2/5 310/2/5
f 312/2/5 282/2/5 281/2/5
f 313/2/5 282/2/5 312/2/5
f 314/2/5 284/2/5 283/2/5
f 315/2/5 284/2/5 314/2/5
f 316/2/5 286/2/5 285/2/5
f 317/2/5 286/2/5 316/2/5
f 318/2/5 288/2/5 287/2/5
f 319/1/5 317/1/5 316/1/5
f 319/1/5 318/1/5 317/1/5
f 319/2/5 289/2/5 257/2/5
f 319/1/5 291/1/5 290/1/5
f 319/1/5 316/1/5 315/1/5
f 319/1/5 293/1/5 292/1/5
f 319/1/5 314/1/5 313/1/5
f 319/1/5 295/1/5 294/1/5
f 319/1/5 312/1/5 311/1/5
f 319/1/5 297/1/5 296/1/5
f 319/1/5 310/1/5 309/1/5
f 319/1/5 299/1/5 298/1/5
f 319/1/5 308/1/5 307/1/5
f 319/1/5 301/1/5 300/1/5
f 319/1/5 306/1/5 305/1/5
f 319/1/5 303/1/5 302/1/5
f 319/1/5 304/1/5 303/1/5
f 319/1/5 305/1/5 304/1/5
f 319/1/5 302/1/5 301/1/5
f 319/1/5 307/1/5 306/1/5
f 319/1/5 300/1/5 299/1/5
f 319/1/5 309/1/5 308/1/5
f 319/1/5 298/1/5 297/1/5
f 319/1/5 311/1/5 310/1/5
f 319/1/5 296/1/5 295/1/5
f 319/1/5 313/1/5 312/1/5
f 319/1/5 294/1/5 293/1/5
f 319/1/5 315/1/5 314/1/5
f 319/1/5 292/1/5 291/1/5
f 319/1/5 290/1/5 289/1/5
f 320/2/5 288/2/5 318/2/5
f 320/1/5 318/1/5 319/1/5
f 321/2/5 319/2/5 257/2/5
f 321/2/5 320/2/5 319/2/5
f 322/2/5 288/2/5 320/2/5
f 322/2/5 320/2/5 321/2/5
f 323/2/6 324/2/6 355/2/6
f 325/2/6 326/2/6 356/2/6
f 356/2/6 326/2/6 357/2/6
f 327/2/6 328/2/6 358/2/6
f 358/2/6 328/2/6 359/2/6
f 329/2/6 330/2/6 360/2/6
f 360/2/6 330/2/6 361/2/6
f 331/2/6 332/2/6 362/2/6
f 362/2/6 332/2/6 363/2/6
f 333/2/6 334/2/6 364/2/6
f 364/2/6 334/2/6 365/2/6
f 335/2/6 336/2/6 366/2/6
f 366/2/6 336/2/6 367/2/6
f 337/2/6 338/2/6 368/2/6
f 368/2/6 338/2/6 369/2/6
f 339/2/6 340/2/6 370/2/6
f 370/2/6 340/2/6 371/2/6
f 341/2/6 342/2/6 372/2/6
f 372/2/6 342/2/6 373/2/6
f 343/2/6 344/2/6 374/2/6
f 374/2/6 344/2/6 375/2/6
f 345/2/6 346/2/6 376/2/6
f 376/2/6 346/2/6 377/2/6
f 347/2/6 348/2/6 378/2/6
f 378/2/6 348/2/6 379/2/6
f 349/2/6 350/2/6 380/2/6
f 380/2/6 350/2/6 381/2/6
f 351/2/6 352/2/6 382/2/6
f 382/2/6 352/2/6 383/2/6
f 353/2/6 354/2/6 384/2/6
f 323/2/6 355/2/6 385/2/6
f 355/1/6 356/1/6 385/1/6
f 356/2/6 357/2/6 386/2/6
f 385/1/6 356/1/6 386/1/6
f 357/1/6 358/1/6 387/1/6
f 386/2/6 357/2/6 387/2/6
f 358/2/6 359/2/6 388/2/6
f 387/1/6 358/1/6 388/1/6
f 359/1/6 360/1/6 389/1/6
f 388/2/6 359/2/6 389/2/6
f 360/2/6 361/2/6 390/2/6
f 389/1/6 360/1/6 390/1/6
f 361/1/6 362/1/6 391/1/6
f 390/2/6 361/2/6 391/2/6
f 362/2/6 363/2/6 392/2/6
f 391/1/6 362/1/6 392/1/6
f 363/1/6 364/1/6 393/1/6
f 392/2/6 363/2/6 393/2/6
f 364/2/6 365/2/6 394/2/6
f 393/1/6 364/1/6 394/1/6
f 365/1/6 366/1/6 395/1/6
f 394/2/6 365/2/6 395/2/6
f 366/2/6 367/2/6 396/2/6
f 395/1/6 366/1/6 396/1/6
f 367/1/6 368/1/6 397/1/6
f 396/2/6 367/2/6 397/2/6
f 368/2/6 369/2/6 398/2/6
f 397/1/6 368/1/6 398/1/6
f 369/1/6 370/1/6 399/1/6
f 398/2/6 369/2/6 399/2/6
f 370/2/6 371/2/6 400/2/6
f 399/1/6 370/1/6 400/1/6
f 371/1/6 372/1/6 401/1/6
f 400/2/6 371/2/6 401/2/6
f 372/2/6 373/2/6 402/2/6
f 401/1/6 372/1/6 402/1/6
f 373/1/6 374/1/6 403/1/6
f 402/2/6 373/2/6 403/2/6
f 374/2/6 375/2/6 404/2/6
f 403/1/6 374/1/6 404/1/6
f 375/1/6 376/1/6 405/1/6
f 404/2/6 375/2/6 405/2/6
f 376/2/6 377/2/6 406/2/6
f 405/1/6 376/1/6 406/1/6
f 377/1/6 378/1/6 407/1/6
f 406/2/6 377/2/6 407/2/6
f 378/2/6 379/2/6 408/2/6
f 407/1/6 378/1/6 408/1/6
f 379/1/6 380/1/6 409/1/6
f 408/2/6 379/2/6 409/2/6
f 380/2/6 381/2/6 410/2/6
f 409/1/6 380/1/6 410/1/6
f 381/1/6 382/1/6 411/1/6
f 410/2/6 381/2/6 411/2/6
f 382/2/6 383/2/6 412/2/6
f 411/1/6 382/1/6 412/1/6
f 383/1/6 384/1/6 413/1/6
f 412/2/6 383/2/6 413/2/6
f 384/2/6 354/2/6 414/2/6
f 413/1/6 384/1/6 414/1/6
f 410/2/6 411/2/6 415/2/6
f 411/2/6 412/2/6 415/2/6
f 413/2/6 414/2/6 415/2/6
f 323/2/6 385/2/6 415/2/6
f 409/2/6 410/2/6 415/2/6
f 386/2/6 387/2/6 415/2/6
f 407/2/6 408/2/6 415/2/6
f 388/2/6 389/2/6 415/2/6
f 405/2/6 406/2/6 415/2/6
f 390/2/6 391/2/6 415/2/6
f 403/2/6 404/2/6 415/2/6
f 392/2/6 393/2/6 415/2/6
f 401/2/6 402/2/6 415/2/6
f 394/2/6 395/2/6 415/2/6
f 399/2/6 400/2/6 415/2/6
f 396/2/6 397/2/6 415/2/6
f 397/2/6 398/2/6 415/2/6
f 398/2/6 399/2/6 415/2/6
f 395/2/6 396/2/6 415/2/6
f 400/2/6 401/2/6 415/2/6
f 393/2/6 394/2/6 415/2/6
f 402/2/6 403/2/6 415/2/6
f 391/2/6 392/2/6 415/2/6
f 404/2/6 405/2/6 415/2/6
f 389/2/6 390/2/6 415/2/6
f 406/2/6 407/2/6 415/2/6
f 387/2/6 388/2/6 415/2/6
f 408/2/6 409/2/6 415/2/6
f 385/2/6 386/2/6 415/2/6
f 412/2/6 413/2/6 415/2/6
f 414/2/6 354/2/6 416/2/6
f 415/2/6 414/2/6 416/2/6
