# MagicaVoxel @ Ephtracy

# group
o 

# material
mtllib Body Proportions Template.mtl
usemtl palette

# normals
vn -1 0 0
vn 1 0 0
vn 0 0 1
vn 0 0 -1
vn 0 -1 0
vn 0 1 0

# texcoords
vt 0.185547 0.5
vt 0.466797 0.5
vt 0.541016 0.5
vt 0.681641 0.5
vt 0.845703 0.5
vt 0.919922 0.5
vt 0.955078 0.5
vt 0.958984 0.5
vt 0.994141 0.5

# verts
v -0.8 15.6 0.0999999
v -0.8 15.6 -5.96046e-08
v -0.8 18 0.0999999
v -0.8 18 -5.96046e-08
v -0.6 16.2 0.2
v -0.6 16.2 0.0999999
v -0.6 16.3 0.2
v -0.6 16.3 0.0999999
v -0.6 17.1 0.2
v -0.6 17.1 0.0999999
v -0.6 17.6 0.2
v -0.6 17.6 0.0999999
v -0.4 16.1 0.2
v -0.4 16.1 0.0999999
v -0.4 16.2 0.2
v -0.4 16.2 0.0999999
v -0.2 16 0.2
v -0.2 16 0.0999999
v -0.2 16.1 0.2
v -0.2 16.1 0.0999999
v -0.1 0 0.0999999
v -0.1 0 -5.96046e-08
v -0.1 1.2 0.0999999
v -0.1 1.2 -5.96046e-08
v -0.1 3.6 0.0999999
v -0.1 3.6 -5.96046e-08
v -0.1 6 0.0999999
v -0.1 6 -5.96046e-08
v -0.1 8.4 0.0999999
v -0.1 8.4 -5.96046e-08
v -0.1 10.8 0.0999999
v -0.1 10.8 -5.96046e-08
v -0.1 13.2 0.0999999
v -0.1 13.2 -5.96046e-08
v -0.1 15.6 0.0999999
v -0.1 15.6 -5.96046e-08
v -0.1 16.6 0.2
v -0.1 16.6 0.0999999
v -0.1 16.9 0.2
v -0.1 16.9 0.0999999
v 0.2 16.1 0.2
v 0.2 16.1 0.0999999
v 0.2 16.2 0.2
v 0.2 16.2 0.0999999
v 0.3 17.1 0.2
v 0.3 17.1 0.0999999
v 0.3 17.4 0.2
v 0.3 17.4 0.0999999
v 0.3 17.6 0.2
v 0.3 17.6 0.0999999
v 0.4 16.2 0.2
v 0.4 16.2 0.0999999
v 0.4 16.3 0.2
v 0.4 16.3 0.0999999
v -0.4 16.2 0.2
v -0.4 16.2 0.0999999
v -0.4 16.3 0.2
v -0.4 16.3 0.0999999
v -0.3 17.1 0.2
v -0.3 17.1 0.0999999
v -0.3 17.4 0.2
v -0.3 17.4 0.0999999
v -0.3 17.6 0.2
v -0.3 17.6 0.0999999
v -0.2 16.1 0.2
v -0.2 16.1 0.0999999
v -0.2 16.2 0.2
v -0.2 16.2 0.0999999
v -5.96046e-08 0 0.0999999
v -5.96046e-08 0 -5.96046e-08
v -5.96046e-08 1.2 0.0999999
v -5.96046e-08 1.2 -5.96046e-08
v -5.96046e-08 3.6 0.0999999
v -5.96046e-08 3.6 -5.96046e-08
v -5.96046e-08 6 0.0999999
v -5.96046e-08 6 -5.96046e-08
v -5.96046e-08 8.4 0.0999999
v -5.96046e-08 8.4 -5.96046e-08
v -5.96046e-08 10.8 0.0999999
v -5.96046e-08 10.8 -5.96046e-08
v -5.96046e-08 13.2 0.0999999
v -5.96046e-08 13.2 -5.96046e-08
v -5.96046e-08 15.6 0.0999999
v -5.96046e-08 15.6 -5.96046e-08
v 0.0999999 16.6 0.2
v 0.0999999 16.6 0.0999999
v 0.0999999 16.9 0.2
v 0.0999999 16.9 0.0999999
v 0.2 16 0.2
v 0.2 16 0.0999999
v 0.2 16.1 0.2
v 0.2 16.1 0.0999999
v 0.4 16.1 0.2
v 0.4 16.1 0.0999999
v 0.4 16.2 0.2
v 0.4 16.2 0.0999999
v 0.6 16.2 0.2
v 0.6 16.2 0.0999999
v 0.6 16.3 0.2
v 0.6 16.3 0.0999999
v 0.6 17.1 0.2
v 0.6 17.1 0.0999999
v 0.6 17.6 0.2
v 0.6 17.6 0.0999999
v 0.7 15.6 0.0999999
v 0.7 15.6 -5.96046e-08
v 0.7 18 0.0999999
v 0.7 18 -5.96046e-08
v -0.6 16.2 0.2
v -0.6 16.3 0.2
v -0.6 17.1 0.2
v -0.6 17.6 0.2
v -0.5 17.1 0.2
v -0.5 17.4 0.2
v -0.4 16.1 0.2
v -0.4 16.2 0.2
v -0.4 16.3 0.2
v -0.3 17.1 0.2
v -0.3 17.4 0.2
v -0.3 17.6 0.2
v -0.2 16 0.2
v -0.2 16.1 0.2
v -0.2 16.2 0.2
v -0.1 16.6 0.2
v -0.1 16.9 0.2
v 0.0999999 16.6 0.2
v 0.0999999 16.9 0.2
v 0.2 16 0.2
v 0.2 16.1 0.2
v 0.2 16.2 0.2
v 0.3 17.1 0.2
v 0.3 17.4 0.2
v 0.3 17.6 0.2
v 0.4 16.1 0.2
v 0.4 16.2 0.2
v 0.4 16.3 0.2
v 0.5 17.1 0.2
v 0.5 17.4 0.2
v 0.6 16.2 0.2
v 0.6 16.3 0.2
v 0.6 17.1 0.2
v 0.6 17.6 0.2
v -0.8 15.6 0.0999999
v -0.8 18 0.0999999
v -0.6 16.2 0.0999999
v -0.6 16.3 0.0999999
v -0.6 17.1 0.0999999
v -0.6 17.6 0.0999999
v -0.5 17.1 0.0999999
v -0.4 16.1 0.0999999
v -0.4 16.2 0.0999999
v -0.4 16.3 0.0999999
v -0.3 17.1 0.0999999
v -0.3 17.4 0.0999999
v -0.3 17.6 0.0999999
v -0.2 16 0.0999999
v -0.2 16.1 0.0999999
v -0.2 16.2 0.0999999
v -0.1 0 0.0999999
v -0.1 1.2 0.0999999
v -0.1 3.6 0.0999999
v -0.1 6 0.0999999
v -0.1 8.4 0.0999999
v -0.1 10.8 0.0999999
v -0.1 13.2 0.0999999
v -0.1 15.6 0.0999999
v -0.1 16.6 0.0999999
v -0.1 16.9 0.0999999
v -5.96046e-08 0 0.0999999
v -5.96046e-08 1.2 0.0999999
v -5.96046e-08 3.6 0.0999999
v -5.96046e-08 6 0.0999999
v -5.96046e-08 8.4 0.0999999
v -5.96046e-08 10.8 0.0999999
v -5.96046e-08 13.2 0.0999999
v -5.96046e-08 15.6 0.0999999
v 0.0999999 16.6 0.0999999
v 0.0999999 16.9 0.0999999
v 0.2 16 0.0999999
v 0.2 16.1 0.0999999
v 0.2 16.2 0.0999999
v 0.3 17.1 0.0999999
v 0.3 17.4 0.0999999
v 0.3 17.6 0.0999999
v 0.4 16.1 0.0999999
v 0.4 16.2 0.0999999
v 0.4 16.3 0.0999999
v 0.5 17.1 0.0999999
v 0.6 16.2 0.0999999
v 0.6 16.3 0.0999999
v 0.6 17.1 0.0999999
v 0.6 17.6 0.0999999
v 0.7 15.6 0.0999999
v 0.7 18 0.0999999
v -0.8 15.6 -5.96046e-08
v -0.8 18 -5.96046e-08
v -0.1 0 -5.96046e-08
v -0.1 1.2 -5.96046e-08
v -0.1 3.6 -5.96046e-08
v -0.1 6 -5.96046e-08
v -0.1 8.4 -5.96046e-08
v -0.1 10.8 -5.96046e-08
v -0.1 13.2 -5.96046e-08
v -0.1 15.6 -5.96046e-08
v -5.96046e-08 0 -5.96046e-08
v -5.96046e-08 1.2 -5.96046e-08
v -5.96046e-08 3.6 -5.96046e-08
v -5.96046e-08 6 -5.96046e-08
v -5.96046e-08 8.4 -5.96046e-08
v -5.96046e-08 10.8 -5.96046e-08
v -5.96046e-08 13.2 -5.96046e-08
v -5.96046e-08 15.6 -5.96046e-08
v 0.7 15.6 -5.96046e-08
v 0.7 18 -5.96046e-08
v -0.1 0 0.0999999
v -5.96046e-08 0 0.0999999
v -0.1 0 -5.96046e-08
v -5.96046e-08 0 -5.96046e-08
v -0.8 15.6 0.0999999
v -0.1 15.6 0.0999999
v -5.96046e-08 15.6 0.0999999
v 0.7 15.6 0.0999999
v -0.8 15.6 -5.96046e-08
v -0.1 15.6 -5.96046e-08
v -5.96046e-08 15.6 -5.96046e-08
v 0.7 15.6 -5.96046e-08
v -0.2 16 0.2
v 0.2 16 0.2
v -0.2 16 0.0999999
v 0.2 16 0.0999999
v -0.4 16.1 0.2
v -0.2 16.1 0.2
v 0.2 16.1 0.2
v 0.4 16.1 0.2
v -0.4 16.1 0.0999999
v -0.2 16.1 0.0999999
v 0.2 16.1 0.0999999
v 0.4 16.1 0.0999999
v -0.6 16.2 0.2
v -0.4 16.2 0.2
v 0.4 16.2 0.2
v 0.6 16.2 0.2
v -0.6 16.2 0.0999999
v -0.4 16.2 0.0999999
v 0.4 16.2 0.0999999
v 0.6 16.2 0.0999999
v -0.1 16.6 0.2
v 0.0999999 16.6 0.2
v -0.1 16.6 0.0999999
v 0.0999999 16.6 0.0999999
v -0.6 17.1 0.2
v -0.5 17.1 0.2
v -0.3 17.1 0.2
v 0.3 17.1 0.2
v 0.5 17.1 0.2
v 0.6 17.1 0.2
v -0.6 17.1 0.0999999
v -0.5 17.1 0.0999999
v -0.3 17.1 0.0999999
v 0.3 17.1 0.0999999
v 0.5 17.1 0.0999999
v 0.6 17.1 0.0999999
v -0.2 16.1 0.2
v 0.2 16.1 0.2
v -0.2 16.1 0.0999999
v 0.2 16.1 0.0999999
v -0.4 16.2 0.2
v -0.2 16.2 0.2
v 0.2 16.2 0.2
v 0.4 16.2 0.2
v -0.4 16.2 0.0999999
v -0.2 16.2 0.0999999
v 0.2 16.2 0.0999999
v 0.4 16.2 0.0999999
v -0.6 16.3 0.2
v -0.4 16.3 0.2
v 0.4 16.3 0.2
v 0.6 16.3 0.2
v -0.6 16.3 0.0999999
v -0.4 16.3 0.0999999
v 0.4 16.3 0.0999999
v 0.6 16.3 0.0999999
v -0.1 16.9 0.2
v 0.0999999 16.9 0.2
v -0.1 16.9 0.0999999
v 0.0999999 16.9 0.0999999
v -0.6 17.6 0.2
v -0.3 17.6 0.2
v 0.3 17.6 0.2
v 0.6 17.6 0.2
v -0.6 17.6 0.0999999
v -0.3 17.6 0.0999999
v 0.3 17.6 0.0999999
v 0.6 17.6 0.0999999
v -0.8 18 0.0999999
v 0.7 18 0.0999999
v -0.8 18 -5.96046e-08
v 0.7 18 -5.96046e-08

# faces
f 3/4/1 2/4/1 1/4/1
f 4/4/1 2/4/1 3/4/1
f 7/7/1 6/7/1 5/7/1
f 8/7/1 6/7/1 7/7/1
f 11/7/1 10/7/1 9/7/1
f 12/7/1 10/7/1 11/7/1
f 15/7/1 14/7/1 13/7/1
f 16/7/1 14/7/1 15/7/1
f 19/7/1 18/7/1 17/7/1
f 20/7/1 18/7/1 19/7/1
f 23/9/1 22/9/1 21/9/1
f 24/9/1 22/9/1 23/9/1
f 25/8/1 24/8/1 23/8/1
f 26/8/1 24/8/1 25/8/1
f 27/6/1 26/6/1 25/6/1
f 28/6/1 26/6/1 27/6/1
f 29/5/1 28/5/1 27/5/1
f 30/5/1 28/5/1 29/5/1
f 31/3/1 30/3/1 29/3/1
f 32/3/1 30/3/1 31/3/1
f 33/1/1 32/1/1 31/1/1
f 34/1/1 32/1/1 33/1/1
f 35/2/1 34/2/1 33/2/1
f 36/2/1 34/2/1 35/2/1
f 39/7/1 38/7/1 37/7/1
f 40/7/1 38/7/1 39/7/1
f 43/7/1 42/7/1 41/7/1
f 44/7/1 42/7/1 43/7/1
f 47/8/1 46/8/1 45/8/1
f 48/8/1 46/8/1 47/8/1
f 49/7/1 48/7/1 47/7/1
f 50/7/1 48/7/1 49/7/1
f 53/7/1 52/7/1 51/7/1
f 54/7/1 52/7/1 53/7/1
f 55/7/2 56/7/2 57/7/2
f 57/7/2 56/7/2 58/7/2
f 59/8/2 60/8/2 61/8/2
f 61/8/2 60/8/2 62/8/2
f 61/7/2 62/7/2 63/7/2
f 63/7/2 62/7/2 64/7/2
f 65/7/2 66/7/2 67/7/2
f 67/7/2 66/7/2 68/7/2
f 69/9/2 70/9/2 71/9/2
f 71/9/2 70/9/2 72/9/2
f 71/8/2 72/8/2 73/8/2
f 73/8/2 72/8/2 74/8/2
f 73/6/2 74/6/2 75/6/2
f 75/6/2 74/6/2 76/6/2
f 75/5/2 76/5/2 77/5/2
f 77/5/2 76/5/2 78/5/2
f 77/3/2 78/3/2 79/3/2
f 79/3/2 78/3/2 80/3/2
f 79/1/2 80/1/2 81/1/2
f 81/1/2 80/1/2 82/1/2
f 81/2/2 82/2/2 83/2/2
f 83/2/2 82/2/2 84/2/2
f 85/7/2 86/7/2 87/7/2
f 87/7/2 86/7/2 88/7/2
f 89/7/2 90/7/2 91/7/2
f 91/7/2 90/7/2 92/7/2
f 93/7/2 94/7/2 95/7/2
f 95/7/2 94/7/2 96/7/2
f 97/7/2 98/7/2 99/7/2
f 99/7/2 98/7/2 100/7/2
f 101/7/2 102/7/2 103/7/2
f 103/7/2 102/7/2 104/7/2
f 105/4/2 106/4/2 107/4/2
f 107/4/2 106/4/2 108/4/2
f 113/7/3 112/7/3 111/7/3
f 114/7/3 112/7/3 113/7/3
f 116/7/3 110/7/3 109/7/3
f 117/7/3 110/7/3 116/7/3
f 118/8/3 114/8/3 113/8/3
f 119/7/3 112/7/3 114/7/3
f 119/8/3 114/8/3 118/8/3
f 120/7/3 112/7/3 119/7/3
f 122/7/3 116/7/3 115/7/3
f 123/7/3 116/7/3 122/7/3
f 126/7/3 125/7/3 124/7/3
f 127/7/3 125/7/3 126/7/3
f 128/7/3 122/7/3 121/7/3
f 129/7/3 122/7/3 128/7/3
f 134/7/3 130/7/3 129/7/3
f 135/7/3 130/7/3 134/7/3
f 137/8/3 132/8/3 131/8/3
f 138/7/3 133/7/3 132/7/3
f 138/8/3 132/8/3 137/8/3
f 139/7/3 136/7/3 135/7/3
f 140/7/3 136/7/3 139/7/3
f 141/7/3 138/7/3 137/7/3
f 142/7/3 133/7/3 138/7/3
f 142/7/3 138/7/3 141/7/3
f 145/4/3 144/4/3 143/4/3
f 146/4/3 144/4/3 145/4/3
f 147/4/3 144/4/3 146/4/3
f 148/4/3 144/4/3 147/4/3
f 149/4/3 147/4/3 146/4/3
f 150/4/3 145/4/3 143/4/3
f 151/4/3 145/4/3 150/4/3
f 152/4/3 149/4/3 146/4/3
f 153/4/3 152/4/3 151/4/3
f 153/4/3 149/4/3 152/4/3
f 155/4/3 144/4/3 148/4/3
f 156/4/3 150/4/3 143/4/3
f 157/4/3 150/4/3 156/4/3
f 158/4/3 153/4/3 151/4/3
f 158/4/3 154/4/3 153/4/3
f 158/4/3 155/4/3 154/4/3
f 166/4/3 156/4/3 143/4/3
f 167/4/3 158/4/3 157/4/3
f 167/4/3 155/4/3 158/4/3
f 168/4/3 155/4/3 167/4/3
f 169/9/3 160/9/3 159/9/3
f 170/8/3 161/8/3 160/8/3
f 170/9/3 160/9/3 169/9/3
f 171/6/3 162/6/3 161/6/3
f 171/8/3 161/8/3 170/8/3
f 172/5/3 163/5/3 162/5/3
f 172/6/3 162/6/3 171/6/3
f 173/3/3 164/3/3 163/3/3
f 173/5/3 163/5/3 172/5/3
f 174/1/3 165/1/3 164/1/3
f 174/3/3 164/3/3 173/3/3
f 175/2/3 166/2/3 165/2/3
f 175/1/3 165/1/3 174/1/3
f 176/4/3 156/4/3 166/4/3
f 176/2/3 166/2/3 175/2/3
f 177/4/3 167/4/3 157/4/3
f 178/4/3 155/4/3 168/4/3
f 179/4/3 156/4/3 176/4/3
f 180/4/3 178/4/3 177/4/3
f 180/4/3 177/4/3 157/4/3
f 181/4/3 178/4/3 180/4/3
f 182/4/3 155/4/3 178/4/3
f 182/4/3 178/4/3 181/4/3
f 183/4/3 155/4/3 182/4/3
f 184/4/3 144/4/3 155/4/3
f 184/4/3 155/4/3 183/4/3
f 185/4/3 180/4/3 179/4/3
f 186/4/3 182/4/3 181/4/3
f 187/4/3 182/4/3 186/4/3
f 188/4/3 182/4/3 187/4/3
f 189/4/3 186/4/3 185/4/3
f 190/4/3 188/4/3 187/4/3
f 191/4/3 188/4/3 190/4/3
f 192/4/3 144/4/3 184/4/3
f 193/4/3 179/4/3 176/4/3
f 193/4/3 192/4/3 191/4/3
f 193/4/3 191/4/3 190/4/3
f 193/4/3 185/4/3 179/4/3
f 193/4/3 190/4/3 189/4/3
f 193/4/3 189/4/3 185/4/3
f 194/4/3 144/4/3 192/4/3
f 194/4/3 192/4/3 193/4/3
f 195/4/4 196/4/4 204/4/4
f 197/9/4 198/9/4 205/9/4
f 198/8/4 199/8/4 206/8/4
f 205/9/4 198/9/4 206/9/4
f 199/6/4 200/6/4 207/6/4
f 206/8/4 199/8/4 207/8/4
f 200/5/4 201/5/4 208/5/4
f 207/6/4 200/6/4 208/6/4
f 201/3/4 202/3/4 209/3/4
f 208/5/4 201/5/4 209/5/4
f 202/1/4 203/1/4 210/1/4
f 209/3/4 202/3/4 210/3/4
f 203/2/4 204/2/4 211/2/4
f 210/1/4 203/1/4 211/1/4
f 204/4/4 196/4/4 212/4/4
f 211/2/4 204/2/4 212/2/4
f 212/4/4 196/4/4 213/4/4
f 213/4/4 196/4/4 214/4/4
f 217/9/5 216/9/5 215/9/5
f 218/9/5 216/9/5 217/9/5
f 223/4/5 220/4/5 219/4/5
f 224/4/5 220/4/5 223/4/5
f 225/4/5 222/4/5 221/4/5
f 226/4/5 222/4/5 225/4/5
f 229/7/5 228/7/5 227/7/5
f 230/7/5 228/7/5 229/7/5
f 235/7/5 232/7/5 231/7/5
f 236/7/5 232/7/5 235/7/5
f 237/7/5 234/7/5 233/7/5
f 238/7/5 234/7/5 237/7/5
f 243/7/5 240/7/5 239/7/5
f 244/7/5 240/7/5 243/7/5
f 245/7/5 242/7/5 241/7/5
f 246/7/5 242/7/5 245/7/5
f 249/7/5 248/7/5 247/7/5
f 250/7/5 248/7/5 249/7/5
f 257/7/5 252/7/5 251/7/5
f 258/8/5 253/8/5 252/8/5
f 258/7/5 252/7/5 257/7/5
f 259/8/5 253/8/5 258/8/5
f 260/8/5 255/8/5 254/8/5
f 261/7/5 256/7/5 255/7/5
f 261/8/5 255/8/5 260/8/5
f 262/7/5 256/7/5 261/7/5
f 263/7/6 264/7/6 265/7/6
f 265/7/6 264/7/6 266/7/6
f 267/7/6 268/7/6 271/7/6
f 271/7/6 268/7/6 272/7/6
f 269/7/6 270/7/6 273/7/6
f 273/7/6 270/7/6 274/7/6
f 275/7/6 276/7/6 279/7/6
f 279/7/6 276/7/6 280/7/6
f 277/7/6 278/7/6 281/7/6
f 281/7/6 278/7/6 282/7/6
f 283/7/6 284/7/6 285/7/6
f 285/7/6 284/7/6 286/7/6
f 287/7/6 288/7/6 291/7/6
f 291/7/6 288/7/6 292/7/6
f 289/7/6 290/7/6 293/7/6
f 293/7/6 290/7/6 294/7/6
f 295/4/6 296/4/6 297/4/6
f 297/4/6 296/4/6 298/4/6
