# MagicaVoxel @ Ephtracy

# group
o 

# material
mtllib Counter_OnlyTop.mtl
usemtl palette

# normals
vn -1 0 0
vn 1 0 0
vn 0 0 1
vn 0 0 -1
vn 0 -1 0
vn 0 1 0

# texcoords
vt 0.701172 0.5
vt 0.869141 0.5
vt 0.873047 0.5

# verts
v -5 10 5
v -5 10 -4.9
v -5 10 -5
v -5 10.3 -4.9
v -5 10.3 -5
v -5 10.4 -4.9
v -5 10.4 -5
v -5 11 5
v -5 11 -5
v 5 10 5
v 5 10 -4.9
v 5 10 -5
v 5 10.3 -4.9
v 5 10.3 -5
v 5 10.4 -4.9
v 5 10.4 -5
v 5 11 5
v 5 11 -5
v -5 10 5
v -5 11 5
v 5 10 5
v 5 11 5
v -5 10 -5
v -5 10.3 -5
v -5 10.4 -5
v -5 11 -5
v -4.2 10.3 -5
v -4.2 10.4 -5
v -4.2 10.5 -5
v -4.1 10.4 -5
v -4.1 10.5 -5
v -4 10.5 -5
v -4 10.6 -5
v -3.7 10.5 -5
v -3.7 10.6 -5
v -3.7 10.7 -5
v -3.5 10.6 -5
v -3.5 10.7 -5
v -3.5 10.8 -5
v -2.7 10.6 -5
v -2.7 10.7 -5
v -2.7 10.8 -5
v -2.3 10.5 -5
v -2.3 10.6 -5
v -2.3 10.7 -5
v -1.2 10.5 -5
v -1.2 10.6 -5
v -1.2 10.7 -5
v -1 10.6 -5
v -1 10.7 -5
v -1 10.8 -5
v -0.4 10.6 -5
v -0.4 10.7 -5
v -0.4 10.8 -5
v -0.2 10.5 -5
v -0.2 10.6 -5
v -0.2 10.7 -5
v 0.2 10.5 -5
v 0.2 10.6 -5
v 0.2 10.7 -5
v 0.4 10.6 -5
v 0.4 10.7 -5
v 0.4 10.8 -5
v 1 10.6 -5
v 1 10.7 -5
v 1 10.8 -5
v 1.2 10.5 -5
v 1.2 10.6 -5
v 1.2 10.7 -5
v 2.3 10.5 -5
v 2.3 10.6 -5
v 2.3 10.7 -5
v 2.7 10.6 -5
v 2.7 10.7 -5
v 2.7 10.8 -5
v 3.5 10.6 -5
v 3.5 10.7 -5
v 3.5 10.8 -5
v 3.7 10.5 -5
v 3.7 10.6 -5
v 3.7 10.7 -5
v 4 10.5 -5
v 4 10.6 -5
v 4.1 10.4 -5
v 4.1 10.5 -5
v 4.2 10.3 -5
v 4.2 10.4 -5
v 4.2 10.5 -5
v 5 10 -5
v 5 10.3 -5
v 5 10.4 -5
v 5 11 -5
v -5 10 5
v 5 10 5
v -5 10 -4.9
v 5 10 -4.9
v -5 10 -5
v 5 10 -5
v -5 11 5
v 5 11 5
v -5 11 -5
v 5 11 -5

# faces
f 4/3/1 2/3/1 1/3/1
f 4/1/1 3/1/1 2/1/1
f 5/1/1 3/1/1 4/1/1
f 6/3/1 4/3/1 1/3/1
f 6/2/1 5/2/1 4/2/1
f 7/2/1 5/2/1 6/2/1
f 8/3/1 6/3/1 1/3/1
f 8/3/1 7/3/1 6/3/1
f 9/3/1 7/3/1 8/3/1
f 10/3/2 11/3/2 13/3/2
f 11/1/2 12/1/2 13/1/2
f 13/1/2 12/1/2 14/1/2
f 10/3/2 13/3/2 15/3/2
f 13/2/2 14/2/2 15/2/2
f 15/2/2 14/2/2 16/2/2
f 10/3/2 15/3/2 17/3/2
f 15/3/2 16/3/2 17/3/2
f 17/3/2 16/3/2 18/3/2
f 21/3/3 20/3/3 19/3/3
f 22/3/3 20/3/3 21/3/3
f 23/1/4 24/1/4 27/1/4
f 24/2/4 25/2/4 27/2/4
f 25/3/4 26/3/4 28/3/4
f 27/2/4 25/2/4 28/2/4
f 28/3/4 26/3/4 29/3/4
f 27/1/4 28/1/4 30/1/4
f 28/2/4 29/2/4 30/2/4
f 29/3/4 26/3/4 31/3/4
f 30/2/4 29/2/4 31/2/4
f 30/1/4 31/1/4 32/1/4
f 31/3/4 26/3/4 32/3/4
f 32/3/4 26/3/4 33/3/4
f 30/1/4 32/1/4 34/1/4
f 32/2/4 33/2/4 34/2/4
f 33/3/4 26/3/4 35/3/4
f 34/2/4 33/2/4 35/2/4
f 35/3/4 26/3/4 36/3/4
f 34/1/4 35/1/4 37/1/4
f 35/2/4 36/2/4 37/2/4
f 36/3/4 26/3/4 38/3/4
f 37/2/4 36/2/4 38/2/4
f 38/3/4 26/3/4 39/3/4
f 34/1/4 37/1/4 40/1/4
f 37/1/4 38/1/4 40/1/4
f 38/2/4 39/2/4 41/2/4
f 40/1/4 38/1/4 41/1/4
f 39/3/4 26/3/4 42/3/4
f 41/2/4 39/2/4 42/2/4
f 30/1/4 34/1/4 43/1/4
f 34/1/4 40/1/4 43/1/4
f 40/2/4 41/2/4 44/2/4
f 43/1/4 40/1/4 44/1/4
f 41/3/4 42/3/4 45/3/4
f 44/2/4 41/2/4 45/2/4
f 30/1/4 43/1/4 46/1/4
f 43/2/4 44/2/4 46/2/4
f 44/3/4 45/3/4 47/3/4
f 46/2/4 44/2/4 47/2/4
f 45/3/4 42/3/4 48/3/4
f 47/3/4 45/3/4 48/3/4
f 46/1/4 47/1/4 49/1/4
f 47/2/4 48/2/4 49/2/4
f 48/3/4 42/3/4 50/3/4
f 49/2/4 48/2/4 50/2/4
f 42/3/4 26/3/4 51/3/4
f 50/3/4 42/3/4 51/3/4
f 49/1/4 50/1/4 52/1/4
f 46/1/4 49/1/4 52/1/4
f 50/2/4 51/2/4 53/2/4
f 52/1/4 50/1/4 53/1/4
f 51/3/4 26/3/4 54/3/4
f 53/2/4 51/2/4 54/2/4
f 46/1/4 52/1/4 55/1/4
f 30/1/4 46/1/4 55/1/4
f 52/2/4 53/2/4 56/2/4
f 55/1/4 52/1/4 56/1/4
f 53/3/4 54/3/4 57/3/4
f 56/2/4 53/2/4 57/2/4
f 30/1/4 55/1/4 58/1/4
f 55/2/4 56/2/4 58/2/4
f 56/3/4 57/3/4 59/3/4
f 58/2/4 56/2/4 59/2/4
f 57/3/4 54/3/4 60/3/4
f 59/3/4 57/3/4 60/3/4
f 58/1/4 59/1/4 61/1/4
f 59/2/4 60/2/4 61/2/4
f 60/3/4 54/3/4 62/3/4
f 61/2/4 60/2/4 62/2/4
f 54/3/4 26/3/4 63/3/4
f 62/3/4 54/3/4 63/3/4
f 58/1/4 61/1/4 64/1/4
f 61/1/4 62/1/4 64/1/4
f 62/2/4 63/2/4 65/2/4
f 64/1/4 62/1/4 65/1/4
f 63/3/4 26/3/4 66/3/4
f 65/2/4 63/2/4 66/2/4
f 58/1/4 64/1/4 67/1/4
f 30/1/4 58/1/4 67/1/4
f 64/2/4 65/2/4 68/2/4
f 67/1/4 64/1/4 68/1/4
f 65/3/4 66/3/4 69/3/4
f 68/2/4 65/2/4 69/2/4
f 30/1/4 67/1/4 70/1/4
f 67/2/4 68/2/4 70/2/4
f 68/3/4 69/3/4 71/3/4
f 70/2/4 68/2/4 71/2/4
f 69/3/4 66/3/4 72/3/4
f 71/3/4 69/3/4 72/3/4
f 70/1/4 71/1/4 73/1/4
f 71/2/4 72/2/4 73/2/4
f 72/3/4 66/3/4 74/3/4
f 73/2/4 72/2/4 74/2/4
f 66/3/4 26/3/4 75/3/4
f 74/3/4 66/3/4 75/3/4
f 70/1/4 73/1/4 76/1/4
f 73/1/4 74/1/4 76/1/4
f 74/2/4 75/2/4 77/2/4
f 76/1/4 74/1/4 77/1/4
f 75/3/4 26/3/4 78/3/4
f 77/2/4 75/2/4 78/2/4
f 70/1/4 76/1/4 79/1/4
f 30/1/4 70/1/4 79/1/4
f 76/2/4 77/2/4 80/2/4
f 79/1/4 76/1/4 80/1/4
f 77/3/4 78/3/4 81/3/4
f 80/2/4 77/2/4 81/2/4
f 30/1/4 79/1/4 82/1/4
f 79/2/4 80/2/4 82/2/4
f 80/3/4 81/3/4 83/3/4
f 82/2/4 80/2/4 83/2/4
f 27/1/4 30/1/4 84/1/4
f 30/1/4 82/1/4 84/1/4
f 82/3/4 83/3/4 85/3/4
f 84/1/4 82/1/4 85/1/4
f 23/1/4 27/1/4 86/1/4
f 27/1/4 84/1/4 86/1/4
f 84/2/4 85/2/4 87/2/4
f 86/1/4 84/1/4 87/1/4
f 85/3/4 83/3/4 88/3/4
f 87/2/4 85/2/4 88/2/4
f 23/1/4 86/1/4 89/1/4
f 86/2/4 87/2/4 90/2/4
f 89/1/4 86/1/4 90/1/4
f 87/3/4 88/3/4 91/3/4
f 90/2/4 87/2/4 91/2/4
f 83/3/4 81/3/4 92/3/4
f 91/3/4 88/3/4 92/3/4
f 81/3/4 78/3/4 92/3/4
f 78/3/4 26/3/4 92/3/4
f 88/3/4 83/3/4 92/3/4
f 95/3/5 94/3/5 93/3/5
f 96/3/5 94/3/5 95/3/5
f 97/1/5 96/1/5 95/1/5
f 98/1/5 96/1/5 97/1/5
f 99/3/6 100/3/6 101/3/6
f 101/3/6 100/3/6 102/3/6
