# MagicaVoxel @ Ephtracy

# group
o 

# material
mtllib Counter_Normal.mtl
usemtl palette

# normals
vn -1 0 0
vn 1 0 0
vn 0 0 1
vn 0 0 -1
vn 0 -1 0
vn 0 1 0

# texcoords
vt 0.537109 0.5
vt 0.701172 0.5
vt 0.869141 0.5
vt 0.873047 0.5

# verts
v -5 0 5
v -5 0 -3.1
v -5 10 5
v -5 10 4.9
v -5 10 -3.1
v -5 10 -5
v -5 10.3 -4.9
v -5 10.3 -5
v -5 10.4 -4.9
v -5 10.4 -5
v -5 10.9 4.9
v -5 10.9 -4.9
v -5 11 5
v -5 11 -5
v 4.6 3.2 5
v 4.6 3.2 2.4
v 4.6 6.2 5
v 4.6 6.2 2.4
v 4.6 6.6 5
v 4.6 6.6 2.4
v 4.6 9.6 5
v 4.6 9.6 2.4
v -4.6 3.2 5
v -4.6 3.2 2.4
v -4.6 6.2 5
v -4.6 6.2 2.4
v -4.6 6.6 5
v -4.6 6.6 2.4
v -4.6 9.6 5
v -4.6 9.6 2.4
v 5 0 5
v 5 0 -3.1
v 5 10 5
v 5 10 4.9
v 5 10 -3.1
v 5 10 -5
v 5 10.3 -4.9
v 5 10.3 -5
v 5 10.4 -4.9
v 5 10.4 -5
v 5 10.9 4.9
v 5 10.9 -4.9
v 5 11 5
v 5 11 -5
v -5 0 5
v -5 10 5
v -5 11 5
v -4.6 3.2 5
v -4.6 6.2 5
v -4.6 6.6 5
v -4.6 9.6 5
v 4.6 3.2 5
v 4.6 6.2 5
v 4.6 6.6 5
v 4.6 9.6 5
v 5 0 5
v 5 10 5
v 5 11 5
v -4.6 3.2 2.4
v -4.6 6.2 2.4
v -4.6 6.6 2.4
v -4.6 9.6 2.4
v 4.6 3.2 2.4
v 4.6 6.2 2.4
v 4.6 6.6 2.4
v 4.6 9.6 2.4
v -5 0 -3.1
v -5 10 -3.1
v 5 0 -3.1
v 5 10 -3.1
v -5 10 -5
v -5 10.3 -5
v -5 10.4 -5
v -5 11 -5
v -4.2 10.3 -5
v -4.2 10.4 -5
v -4.2 10.5 -5
v -4.1 10.4 -5
v -4.1 10.5 -5
v -4 10.5 -5
v -4 10.6 -5
v -3.7 10.5 -5
v -3.7 10.6 -5
v -3.7 10.7 -5
v -3.5 10.6 -5
v -3.5 10.7 -5
v -3.5 10.8 -5
v -2.7 10.6 -5
v -2.7 10.7 -5
v -2.7 10.8 -5
v -2.3 10.5 -5
v -2.3 10.6 -5
v -2.3 10.7 -5
v -1.2 10.5 -5
v -1.2 10.6 -5
v -1.2 10.7 -5
v -1 10.6 -5
v -1 10.7 -5
v -1 10.8 -5
v -0.4 10.6 -5
v -0.4 10.7 -5
v -0.4 10.8 -5
v -0.2 10.5 -5
v -0.2 10.6 -5
v -0.2 10.7 -5
v 0.2 10.5 -5
v 0.2 10.6 -5
v 0.2 10.7 -5
v 0.4 10.6 -5
v 0.4 10.7 -5
v 0.4 10.8 -5
v 1 10.6 -5
v 1 10.7 -5
v 1 10.8 -5
v 1.2 10.5 -5
v 1.2 10.6 -5
v 1.2 10.7 -5
v 2.3 10.5 -5
v 2.3 10.6 -5
v 2.3 10.7 -5
v 2.7 10.6 -5
v 2.7 10.7 -5
v 2.7 10.8 -5
v 3.5 10.6 -5
v 3.5 10.7 -5
v 3.5 10.8 -5
v 3.7 10.5 -5
v 3.7 10.6 -5
v 3.7 10.7 -5
v 4 10.5 -5
v 4 10.6 -5
v 4.1 10.4 -5
v 4.1 10.5 -5
v 4.2 10.3 -5
v 4.2 10.4 -5
v 4.2 10.5 -5
v 5 10 -5
v 5 10.3 -5
v 5 10.4 -5
v 5 11 -5
v -5 0 5
v 5 0 5
v -5 0 -3.1
v 5 0 -3.1
v -4.6 6.2 5
v 4.6 6.2 5
v -4.6 6.2 2.4
v 4.6 6.2 2.4
v -4.6 9.6 5
v 4.6 9.6 5
v -4.6 9.6 2.4
v 4.6 9.6 2.4
v -5 10 -3.1
v 5 10 -3.1
v -5 10 -5
v 5 10 -5
v -4.6 3.2 5
v 4.6 3.2 5
v -4.6 3.2 2.4
v 4.6 3.2 2.4
v -4.6 6.6 5
v 4.6 6.6 5
v -4.6 6.6 2.4
v 4.6 6.6 2.4
v -5 11 5
v 5 11 5
v -5 11 -5
v 5 11 -5

# faces
f 3/1/1 2/1/1 1/1/1
f 4/1/1 2/1/1 3/1/1
f 5/1/1 2/1/1 4/1/1
f 7/2/1 5/2/1 4/2/1
f 7/2/1 6/2/1 5/2/1
f 8/2/1 6/2/1 7/2/1
f 9/2/1 7/2/1 4/2/1
f 9/3/1 8/3/1 7/3/1
f 10/3/1 8/3/1 9/3/1
f 11/4/1 4/4/1 3/4/1
f 11/2/1 9/2/1 4/2/1
f 12/4/1 10/4/1 9/4/1
f 12/2/1 9/2/1 11/2/1
f 13/4/1 11/4/1 3/4/1
f 13/4/1 12/4/1 11/4/1
f 14/4/1 10/4/1 12/4/1
f 14/4/1 12/4/1 13/4/1
f 17/1/1 16/1/1 15/1/1
f 18/1/1 16/1/1 17/1/1
f 21/1/1 20/1/1 19/1/1
f 22/1/1 20/1/1 21/1/1
f 23/1/2 24/1/2 25/1/2
f 25/1/2 24/1/2 26/1/2
f 27/1/2 28/1/2 29/1/2
f 29/1/2 28/1/2 30/1/2
f 31/1/2 32/1/2 33/1/2
f 33/1/2 32/1/2 34/1/2
f 34/1/2 32/1/2 35/1/2
f 34/2/2 35/2/2 37/2/2
f 35/2/2 36/2/2 37/2/2
f 37/2/2 36/2/2 38/2/2
f 34/2/2 37/2/2 39/2/2
f 37/3/2 38/3/2 39/3/2
f 39/3/2 38/3/2 40/3/2
f 33/4/2 34/4/2 41/4/2
f 34/2/2 39/2/2 41/2/2
f 39/4/2 40/4/2 42/4/2
f 41/2/2 39/2/2 42/2/2
f 33/4/2 41/4/2 43/4/2
f 41/4/2 42/4/2 43/4/2
f 42/4/2 40/4/2 44/4/2
f 43/4/2 42/4/2 44/4/2
f 48/1/3 46/1/3 45/1/3
f 49/1/3 46/1/3 48/1/3
f 50/1/3 46/1/3 49/1/3
f 51/1/3 46/1/3 50/1/3
f 52/1/3 48/1/3 45/1/3
f 53/1/3 50/1/3 49/1/3
f 54/1/3 50/1/3 53/1/3
f 55/1/3 46/1/3 51/1/3
f 56/1/3 54/1/3 53/1/3
f 56/1/3 55/1/3 54/1/3
f 56/1/3 52/1/3 45/1/3
f 56/1/3 53/1/3 52/1/3
f 57/4/3 47/4/3 46/4/3
f 57/1/3 55/1/3 56/1/3
f 57/1/3 46/1/3 55/1/3
f 58/4/3 47/4/3 57/4/3
f 63/1/3 60/1/3 59/1/3
f 64/1/3 60/1/3 63/1/3
f 65/1/3 62/1/3 61/1/3
f 66/1/3 62/1/3 65/1/3
f 67/1/4 68/1/4 69/1/4
f 69/1/4 68/1/4 70/1/4
f 71/2/4 72/2/4 75/2/4
f 72/3/4 73/3/4 75/3/4
f 73/4/4 74/4/4 76/4/4
f 75/3/4 73/3/4 76/3/4
f 76/4/4 74/4/4 77/4/4
f 75/2/4 76/2/4 78/2/4
f 76/3/4 77/3/4 78/3/4
f 77/4/4 74/4/4 79/4/4
f 78/3/4 77/3/4 79/3/4
f 78/2/4 79/2/4 80/2/4
f 79/4/4 74/4/4 80/4/4
f 80/4/4 74/4/4 81/4/4
f 78/2/4 80/2/4 82/2/4
f 80/3/4 81/3/4 82/3/4
f 81/4/4 74/4/4 83/4/4
f 82/3/4 81/3/4 83/3/4
f 83/4/4 74/4/4 84/4/4
f 82/2/4 83/2/4 85/2/4
f 83/3/4 84/3/4 85/3/4
f 84/4/4 74/4/4 86/4/4
f 85/3/4 84/3/4 86/3/4
f 86/4/4 74/4/4 87/4/4
f 82/2/4 85/2/4 88/2/4
f 85/2/4 86/2/4 88/2/4
f 86/3/4 87/3/4 89/3/4
f 88/2/4 86/2/4 89/2/4
f 87/4/4 74/4/4 90/4/4
f 89/3/4 87/3/4 90/3/4
f 78/2/4 82/2/4 91/2/4
f 82/2/4 88/2/4 91/2/4
f 88/3/4 89/3/4 92/3/4
f 91/2/4 88/2/4 92/2/4
f 89/4/4 90/4/4 93/4/4
f 92/3/4 89/3/4 93/3/4
f 78/2/4 91/2/4 94/2/4
f 91/3/4 92/3/4 94/3/4
f 92/4/4 93/4/4 95/4/4
f 94/3/4 92/3/4 95/3/4
f 93/4/4 90/4/4 96/4/4
f 95/4/4 93/4/4 96/4/4
f 94/2/4 95/2/4 97/2/4
f 95/3/4 96/3/4 97/3/4
f 96/4/4 90/4/4 98/4/4
f 97/3/4 96/3/4 98/3/4
f 90/4/4 74/4/4 99/4/4
f 98/4/4 90/4/4 99/4/4
f 97/2/4 98/2/4 100/2/4
f 94/2/4 97/2/4 100/2/4
f 98/3/4 99/3/4 101/3/4
f 100/2/4 98/2/4 101/2/4
f 99/4/4 74/4/4 102/4/4
f 101/3/4 99/3/4 102/3/4
f 94/2/4 100/2/4 103/2/4
f 78/2/4 94/2/4 103/2/4
f 100/3/4 101/3/4 104/3/4
f 103/2/4 100/2/4 104/2/4
f 101/4/4 102/4/4 105/4/4
f 104/3/4 101/3/4 105/3/4
f 78/2/4 103/2/4 106/2/4
f 103/3/4 104/3/4 106/3/4
f 104/4/4 105/4/4 107/4/4
f 106/3/4 104/3/4 107/3/4
f 105/4/4 102/4/4 108/4/4
f 107/4/4 105/4/4 108/4/4
f 106/2/4 107/2/4 109/2/4
f 107/3/4 108/3/4 109/3/4
f 108/4/4 102/4/4 110/4/4
f 109/3/4 108/3/4 110/3/4
f 102/4/4 74/4/4 111/4/4
f 110/4/4 102/4/4 111/4/4
f 106/2/4 109/2/4 112/2/4
f 109/2/4 110/2/4 112/2/4
f 110/3/4 111/3/4 113/3/4
f 112/2/4 110/2/4 113/2/4
f 111/4/4 74/4/4 114/4/4
f 113/3/4 111/3/4 114/3/4
f 106/2/4 112/2/4 115/2/4
f 78/2/4 106/2/4 115/2/4
f 112/3/4 113/3/4 116/3/4
f 115/2/4 112/2/4 116/2/4
f 113/4/4 114/4/4 117/4/4
f 116/3/4 113/3/4 117/3/4
f 78/2/4 115/2/4 118/2/4
f 115/3/4 116/3/4 118/3/4
f 116/4/4 117/4/4 119/4/4
f 118/3/4 116/3/4 119/3/4
f 117/4/4 114/4/4 120/4/4
f 119/4/4 117/4/4 120/4/4
f 118/2/4 119/2/4 121/2/4
f 119/3/4 120/3/4 121/3/4
f 120/4/4 114/4/4 122/4/4
f 121/3/4 120/3/4 122/3/4
f 114/4/4 74/4/4 123/4/4
f 122/4/4 114/4/4 123/4/4
f 118/2/4 121/2/4 124/2/4
f 121/2/4 122/2/4 124/2/4
f 122/3/4 123/3/4 125/3/4
f 124/2/4 122/2/4 125/2/4
f 123/4/4 74/4/4 126/4/4
f 125/3/4 123/3/4 126/3/4
f 118/2/4 124/2/4 127/2/4
f 78/2/4 118/2/4 127/2/4
f 124/3/4 125/3/4 128/3/4
f 127/2/4 124/2/4 128/2/4
f 125/4/4 126/4/4 129/4/4
f 128/3/4 125/3/4 129/3/4
f 78/2/4 127/2/4 130/2/4
f 127/3/4 128/3/4 130/3/4
f 128/4/4 129/4/4 131/4/4
f 130/3/4 128/3/4 131/3/4
f 75/2/4 78/2/4 132/2/4
f 78/2/4 130/2/4 132/2/4
f 130/4/4 131/4/4 133/4/4
f 132/2/4 130/2/4 133/2/4
f 71/2/4 75/2/4 134/2/4
f 75/2/4 132/2/4 134/2/4
f 132/3/4 133/3/4 135/3/4
f 134/2/4 132/2/4 135/2/4
f 133/4/4 131/4/4 136/4/4
f 135/3/4 133/3/4 136/3/4
f 71/2/4 134/2/4 137/2/4
f 134/3/4 135/3/4 138/3/4
f 137/2/4 134/2/4 138/2/4
f 135/4/4 136/4/4 139/4/4
f 138/3/4 135/3/4 139/3/4
f 131/4/4 129/4/4 140/4/4
f 139/4/4 136/4/4 140/4/4
f 129/4/4 126/4/4 140/4/4
f 126/4/4 74/4/4 140/4/4
f 136/4/4 131/4/4 140/4/4
f 143/1/5 142/1/5 141/1/5
f 144/1/5 142/1/5 143/1/5
f 147/1/5 146/1/5 145/1/5
f 148/1/5 146/1/5 147/1/5
f 151/1/5 150/1/5 149/1/5
f 152/1/5 150/1/5 151/1/5
f 155/2/5 154/2/5 153/2/5
f 156/2/5 154/2/5 155/2/5
f 157/1/6 158/1/6 159/1/6
f 159/1/6 158/1/6 160/1/6
f 161/1/6 162/1/6 163/1/6
f 163/1/6 162/1/6 164/1/6
f 165/4/6 166/4/6 167/4/6
f 167/4/6 166/4/6 168/4/6
